<svg width="344" height="227" viewBox="0 0 344 227" fill="none" xmlns="http://www.w3.org/2000/svg">
<g id="Group 62">
<g id="OBJECTS">
<g id="Group">
<g id="Group_2">
<g id="Group_3">
<path id="Vector" d="M222.661 126.019C220.745 129.025 215.743 132.53 212.192 132.479C200.101 132.256 196.124 124.015 194.818 121.013C195.064 120.952 195.477 120.903 195.77 120.867C197.999 120.546 200.271 118.342 200.938 115.854C201.796 112.621 202.847 106.298 202.723 102.277L218.014 110.746C217.99 111.907 217.913 113.177 217.802 114.457C217.723 115.238 217.646 116.001 217.557 116.746C217.472 117.457 217.376 118.133 217.289 118.76C217.008 120.857 217.944 122.937 219.709 124.092L222.661 126.019Z" fill="#F6D1BB"/>
</g>
<g id="Group_4">
<path id="Vector_2" d="M223.981 93.0792C223.156 95.2461 223.505 97.7069 224.343 99.8684C224.936 101.397 226.252 100.048 227.89 100.076C230.425 100.118 232.407 97.4776 233.943 90.474C234.917 85.336 235.164 82.7284 234.97 82.2349C234.27 80.4591 231.962 79.5045 230.058 79.3374" fill="#3D302A"/>
</g>
<g id="Group_5">
<path id="Vector_3" d="M227.84 77.6812C231.837 82.5017 233.293 96.0687 229.915 105.516C227.514 112.233 224.728 116.571 221.467 116.431C216.525 116.221 206.944 112.158 203.821 108.758C198.202 102.642 199.837 90.6558 200.997 83.1048C202.052 76.245 205.258 67.3435 213.872 69.0378C219.536 70.1524 224.252 73.3535 227.84 77.6812Z" fill="#F5C9AF"/>
</g>
<g id="Group_6">
<path id="Vector_4" d="M205.132 82.0209C206.02 83.0822 207.582 83.317 208.869 83.5254C210.597 83.8051 211.457 84.3962 212.35 85.9677C212.921 86.9733 213.488 88.0746 214.507 88.6208C214.987 88.8778 215.715 88.9137 215.952 88.4238C215.496 88.1214 215.342 87.4943 215.457 86.9589C215.572 86.4235 215.903 85.9617 216.25 85.5377C216.543 85.936 216.574 86.4624 216.735 86.9301C216.949 87.55 217.411 88.08 217.996 88.3753C218.089 88.422 218.191 88.4645 218.294 88.4502C218.434 88.431 218.538 88.3148 218.629 88.2064C219.26 87.453 219.875 86.0132 220.749 85.5545C220.923 86.3774 221.238 87.0254 221.745 87.7051C222.187 88.2968 222.716 88.9065 223.44 89.0479C223.674 89.0934 223.965 89.0592 224.075 88.8478C224.21 88.5909 223.999 88.3304 224.032 88.0698C224.062 87.8237 224.178 87.7159 224.304 87.5075C224.626 86.9745 224.917 86.4582 225.339 85.9923C226.194 86.9655 227.128 87.8692 228.129 88.6921C228.35 88.8736 228.675 89.0538 228.896 88.8724C229.014 88.776 229.045 88.6119 229.07 88.4615C229.193 87.7009 229.315 86.9403 229.438 86.1791C229.507 85.7521 229.758 85.1951 230.177 85.3035C230.379 85.3562 230.502 85.5557 230.612 85.7341C230.753 85.9629 233.207 88.5568 233.259 88.3555C233.641 86.8834 234.427 85.5407 234.809 84.068C237.27 74.5796 226.279 66.9543 217.881 66.9142C216.011 66.9052 214.263 67.2975 212.453 67.6988C210.521 68.1276 208.522 68.4462 206.765 69.4098C204.308 70.758 202.441 73.2051 202.921 76.1295" fill="#3D302A"/>
</g>
<g id="Group_7">
<path id="Vector_5" d="M209.179 79.5092C210.397 80.8921 210.723 82.8367 210.836 84.6765C211.005 87.4471 210.777 90.329 209.495 92.7905C209.131 93.4906 208.863 96.9588 208.299 96.7672C208.121 96.7067 208.15 94.0194 207.679 92.5695C206.949 90.323 203.583 89.4701 202.071 90.8854C199.655 93.1462 201.072 95.8886 201.871 97.5943C202.353 98.6232 203.112 99.7809 203.24 100.872C203.404 102.269 203.449 107.35 202.539 108.541C201.779 109.536 200.97 104.73 200.285 103.784C195.191 96.7348 190.305 78.7833 199.006 74.8952C200.328 74.3047 204.414 73.9963 205.65 74.7503" fill="#3D302A"/>
</g>
</g>
<path id="Vector_6" d="M241.375 222.193C241.88 222.279 242.389 222.348 242.91 222.365C245.71 222.457 248.414 221.839 251.153 221.368C253.56 220.953 254.213 220.725 254.161 217.821C253.744 194.815 250.36 171.875 244.281 149.685C243.352 146.296 242.344 142.884 240.566 139.854C237.534 134.687 230.562 130.221 225.221 127.717C224.466 127.363 221.341 129.351 220.581 129.007C219.914 128.706 219.329 128.243 218.658 127.949C216.696 127.09 215.38 128.886 213.738 129.631C212.891 130.016 211.943 130.258 211.007 130.219C210.247 130.187 209.559 129.729 208.862 130.089C205.737 131.704 197.978 119.702 197.978 119.702L194.619 123.215L184.789 133.52L160.212 167.399C160.212 167.399 155.753 195.166 152.687 213.365C152.156 216.506 150.045 223.287 149.629 225.668C149.719 225.156 170.605 225.013 171.733 225.013C186.256 225.013 199.782 225.013 214.305 225.013C216.693 225.013 223.115 226.027 224.792 224.272C226.855 222.113 229.247 212.22 229.369 209.447C229.782 200.124 229.144 190.87 229.018 181.488C229.069 185.302 230.166 188.753 230.634 192.49C231.236 197.299 232.1 202.105 232.876 206.889C233.5 210.737 234.097 214.589 234.575 218.458C234.791 220.198 234.513 221.235 235.987 221.916C237.227 222.49 239.928 221.946 241.375 222.193Z" fill="#BC744A"/>
<path id="Vector_7" d="M233.488 214.226C232.35 213.757 225.33 212.014 222.165 211.359C220.504 211.015 212.991 209.065 211.249 209.065C209.507 209.065 207.138 211.556 207.138 211.556L207.766 220.125C209.44 219.957 211.684 220.828 212.89 220.996C214.095 221.164 218.182 221.185 220.693 219.924C220.837 219.852 220.966 219.771 221.102 219.695C222.114 220.591 223.384 221.467 224.786 221.537C224.786 221.537 225.884 221.426 225.78 220.981C225.729 220.765 225.004 219.65 224.273 218.563C225.348 219.66 227.108 221.436 229.138 221.537C229.138 221.537 230.237 221.426 230.132 220.981C230.07 220.719 229.021 219.143 228.168 217.889C228.179 217.899 228.195 217.909 228.205 217.918C229.095 218.704 231.214 221.412 233.725 221.537C233.725 221.537 234.824 221.426 234.719 220.981C234.681 220.82 234.266 220.157 233.755 219.38C234.397 219.868 235.182 220.392 236.133 220.863C238.846 222.203 240.387 221.185 240.387 220.863C240.388 220.539 234.627 214.695 233.488 214.226Z" fill="#F5C9AF"/>
<path id="Vector_8" d="M209.075 204.274C209.075 204.274 213.446 206.754 213.058 212.024C212.669 217.294 211.087 223.405 204.49 222.765C197.894 222.125 209.075 204.274 209.075 204.274Z" fill="#874C2E"/>
<path id="Vector_9" d="M203.069 222.241C187.258 227.734 166.098 222.487 152.686 213.364C144.283 207.661 138.923 200.424 139.824 193.35C142.165 174.976 156.595 132.863 169.082 126.715C177.568 122.534 187.866 120.801 193.601 120.11C196.293 119.782 197.978 119.701 197.978 119.701L195.894 125.58L185.466 154.997C185.08 172.458 172.593 182.822 175.074 186.886C177.554 190.938 197.17 195.318 207.468 202.262C210.325 204.194 213.941 218.142 203.069 222.241Z" fill="#BC744A"/>
<g id="Group_8">
<path id="Vector_10" d="M139.826 193.803L139.793 195.028C139.795 195.232 139.766 195.435 139.792 195.638L139.862 196.244C139.921 196.646 139.92 197.056 140.023 197.45L140.314 198.632C140.795 200.177 141.459 201.669 142.365 203.012C144.102 205.744 146.401 208.089 148.936 210.102C154.017 214.138 159.868 217.155 165.973 219.351C172.064 221.595 178.454 223.075 184.931 223.612C188.168 223.89 191.429 223.923 194.671 223.645C197.914 223.396 201.136 222.798 204.258 221.827C201.2 222.993 197.969 223.683 194.715 224.083C191.454 224.453 188.158 224.498 184.88 224.301C181.6 224.115 178.34 223.621 175.131 222.92C171.922 222.218 168.757 221.309 165.665 220.193C162.583 219.051 159.569 217.716 156.684 216.135C153.804 214.55 151.019 212.763 148.5 210.634C145.977 208.522 143.689 206.078 141.992 203.24C141.126 201.834 140.508 200.28 140.085 198.693C139.666 197.092 139.634 195.424 139.826 193.803Z" fill="#874C2E"/>
</g>
<g id="Group_9">
<path id="Vector_11" d="M185.469 155.001C185.481 158.312 185.02 161.63 184.161 164.843C183.292 168.055 182.026 171.151 180.552 174.129C179.818 175.62 179.03 177.082 178.223 178.526C177.425 179.974 176.607 181.412 175.937 182.889C175.607 183.627 175.322 184.385 175.207 185.133C175.175 185.5 175.145 185.874 175.25 186.194C175.273 186.367 175.376 186.501 175.436 186.655C175.55 186.792 175.628 186.943 175.769 187.072C176.838 188.144 178.372 188.871 179.83 189.568C185.803 192.29 192.145 194.308 198.193 197.031C201.216 198.391 204.21 199.857 206.99 201.691L207.507 202.041C207.679 202.16 207.842 202.317 208.008 202.454C208.317 202.756 208.59 203.093 208.806 203.459C209.25 204.185 209.55 204.975 209.781 205.776C210.221 207.387 210.408 209.048 210.423 210.703C210.312 209.054 210.042 207.411 209.553 205.846C209.041 204.297 208.245 202.789 206.752 202.062C203.959 200.326 200.957 198.942 197.919 197.667C194.872 196.408 191.793 195.218 188.695 194.063C185.602 192.892 182.488 191.768 179.45 190.383C177.954 189.641 176.417 188.942 175.139 187.654C174.976 187.501 174.848 187.285 174.708 187.098C174.606 186.873 174.471 186.655 174.432 186.413C174.29 185.935 174.333 185.463 174.378 185.014C174.524 184.124 174.843 183.324 175.192 182.556C175.902 181.025 176.736 179.592 177.546 178.15C178.355 176.707 179.171 175.276 179.937 173.818C183.019 168.013 185.159 161.635 185.469 155.001Z" fill="#874C2E"/>
</g>
<path id="Vector_12" d="M226.449 128.29C224.939 129.789 218.226 134.574 211.823 134.574C210.759 134.574 209.635 134.481 208.441 134.258C203.069 133.274 198.54 129.691 195.895 125.58C195.404 124.807 194.97 124.011 194.62 123.214C194.14 122.183 193.8 121.129 193.602 120.111C196.294 119.782 198.868 119.103 199.289 118.624C199.746 121.762 203.62 127.43 209.483 128.496C210.22 128.637 210.91 128.695 211.577 128.707H211.589C214.34 128.753 216.458 127.875 217.898 126.985C217.91 126.985 220.707 124.78 220.719 124.768L226.449 128.29Z" fill="#BC744A"/>
<path id="Vector_13" d="M217.361 99.2489C217.961 99.2489 218.447 98.2892 218.447 97.1054C218.447 95.9216 217.961 94.9619 217.361 94.9619C216.761 94.9619 216.275 95.9216 216.275 97.1054C216.275 98.2892 216.761 99.2489 217.361 99.2489Z" fill="#56211A"/>
<path id="Vector_14" d="M217.825 98.6059C218.085 98.6059 218.295 98.3128 218.295 97.9512C218.295 97.5895 218.085 97.2964 217.825 97.2964C217.565 97.2964 217.354 97.5895 217.354 97.9512C217.354 98.3128 217.565 98.6059 217.825 98.6059Z" fill="white"/>
<path id="Vector_15" d="M229.041 100.232C229.64 100.232 230.126 99.2721 230.126 98.0883C230.126 96.9045 229.64 95.9448 229.041 95.9448C228.441 95.9448 227.955 96.9045 227.955 98.0883C227.955 99.2721 228.441 100.232 229.041 100.232Z" fill="#56211A"/>
<path id="Vector_16" d="M225.322 107.299C225.309 107.751 223.418 110.504 221.58 110.286C220.038 110.102 218.687 107.21 219.498 105.892C219.933 105.432 225.336 106.847 225.322 107.299Z" fill="white"/>
<g id="Group_10">
<g id="Group_11">
<path id="Vector_17" d="M214.132 91.8392C215.477 90.6535 218.711 91.1138 220.086 91.993C220.356 92.1653 220.647 91.7763 220.424 91.5549C219.494 90.6296 217.94 90.5745 216.704 90.62C215.766 90.6541 214.227 90.6134 213.905 91.7075C213.865 91.8439 214.035 91.9253 214.132 91.8392Z" fill="#3D302A"/>
</g>
</g>
<g id="Group_12">
<g id="Group_13">
<path id="Vector_18" d="M227.268 92.643C228.09 92.5801 228.853 92.4293 229.673 92.6334C230.495 92.8381 231.099 93.3396 231.83 93.7239C231.988 93.8071 232.129 93.6437 232.061 93.4929C231.343 91.908 228.557 91.328 227.17 92.2808C227.025 92.3802 227.06 92.6585 227.268 92.643Z" fill="#3D302A"/>
</g>
</g>
<g id="Group_14">
<g id="Group_15">
<path id="Vector_19" d="M223.97 97.1617C223.916 98.3949 223.963 99.6585 224.166 100.878C224.239 101.318 224.803 102.487 224.711 102.863C224.612 103.273 223.896 103.781 223.653 104.185C223.53 104.389 223.77 104.601 223.966 104.498C224.695 104.12 225.533 103.559 225.381 102.678C225.241 101.86 224.867 101.074 224.74 100.231C224.588 99.2106 224.576 98.187 224.485 97.1617C224.457 96.8347 223.985 96.8257 223.97 97.1617Z" fill="#CC6144"/>
</g>
</g>
<path id="Vector_20" d="M229.369 99.6304C229.629 99.6304 229.839 99.3188 229.839 98.9344C229.839 98.5499 229.629 98.2383 229.369 98.2383C229.109 98.2383 228.898 98.5499 228.898 98.9344C228.898 99.3188 229.109 99.6304 229.369 99.6304Z" fill="white"/>
<g id="Group_16">
<g id="Group_17">
<path id="Vector_21" d="M211.074 112.462C212.76 114.442 215.646 115.776 218.239 115.849C218.498 115.856 218.565 115.438 218.301 115.388C215.557 114.879 213.526 113.936 211.331 112.205C211.149 112.061 210.92 112.28 211.074 112.462Z" fill="#CC6144"/>
</g>
</g>
<g id="Group_18">
<g id="Group_19">
<path id="Vector_22" d="M197.97 118.722C194.078 116.877 191.996 122.728 191.603 125.596C190.847 131.109 193.293 136.247 195.515 141.125C197.85 146.249 200.519 151.202 202.905 156.3C204.141 158.938 205.231 161.642 206.055 164.439C206.916 167.363 207.014 170.622 208.072 173.44C208.216 173.825 208.712 173.74 208.761 173.347C209.276 169.262 207.468 164.239 206.061 160.417C204.713 156.758 202.972 153.261 201.234 149.777C198.967 145.23 196.667 140.64 194.803 135.908C193.869 133.535 193.098 131.055 192.933 128.494C192.801 126.448 193.552 118.117 197.531 119.762C198.123 120.006 198.551 118.998 197.97 118.722Z" fill="#874C2E"/>
</g>
</g>
<g id="Group_20">
<g id="Group_21">
<path id="Vector_23" d="M220.707 125.02C225.603 126.883 223.891 135.836 223.222 139.718C222.407 144.444 220.881 149.025 218.969 153.413C215.238 161.972 210.212 169.91 205.713 178.07C205.342 178.743 206.362 179.342 206.743 178.673C212.337 168.847 218.714 159.311 222.408 148.544C224.122 143.549 225.216 138.292 225.292 132.999C225.342 129.48 224.825 125.196 221.013 123.909C220.303 123.67 220.026 124.76 220.707 125.02Z" fill="#874C2E"/>
</g>
</g>
<path id="Vector_24" d="M214.173 173.907C210.391 173.795 206.61 173.683 202.827 173.571C202.217 173.553 201.859 174.065 201.791 174.608C201.078 180.291 200.831 186.085 199.977 191.743C199.877 192.409 200.241 193.041 200.977 193.056C204.707 193.134 208.438 193.245 212.169 193.286C212.364 193.288 212.528 193.242 212.666 193.167C212.672 193.164 212.678 193.16 212.684 193.157C212.72 193.136 212.757 193.116 212.79 193.091C212.962 192.971 213.1 192.788 213.168 192.525C214.607 186.936 214.61 180.679 215.21 174.945C215.269 174.375 214.686 173.922 214.173 173.907Z" fill="#874C2E"/>
<g id="Group_22">
<g id="Group_23">
<path id="Vector_25" d="M229.182 196.961C229.347 193.877 229.041 190.756 229.019 187.667C228.996 184.466 229.092 181.269 229.262 178.074C229.427 174.975 229.677 171.883 230.03 168.801C230.395 165.626 231.059 162.482 231.394 159.309C231.439 158.883 230.76 158.806 230.657 159.209C229.913 162.128 229.625 165.232 229.273 168.223C228.887 171.495 228.605 174.782 228.447 178.073C228.294 181.267 228.275 184.47 228.347 187.666C228.416 190.755 228.418 193.947 229.051 196.978C229.067 197.055 229.178 197.032 229.182 196.961Z" fill="#874C2E"/>
</g>
</g>
<g id="Group_24">
<g id="Group_25">
<path id="Vector_26" d="M197.726 124.477C198.737 128.627 203.38 132.147 207.464 132.76C207.81 132.811 207.961 132.336 207.612 132.225C205.504 131.557 203.515 130.685 201.816 129.244C200.172 127.85 199.167 126.132 198.008 124.358C197.913 124.213 197.683 124.303 197.726 124.477Z" fill="#874C2E"/>
</g>
</g>
<g id="Group_26">
<g id="Group_27">
<path id="Vector_27" d="M211.328 132.779C212.04 132.618 212.746 132.45 213.448 132.251C214.076 132.073 214.734 131.95 215.282 131.584C215.446 131.476 215.386 131.217 215.181 131.212C213.891 131.178 212.399 131.887 211.199 132.312C210.908 132.416 211.021 132.849 211.328 132.779Z" fill="#874C2E"/>
</g>
</g>
<g id="Group_28">
<g id="Group_29">
<path id="Vector_28" d="M204.389 93.8918C204.784 93.2851 205.392 95.1663 205.417 95.3244C205.532 96.055 205.382 96.7078 205.195 97.4068C205.125 97.6697 205.936 97.4625 206.032 97.2762C206.559 96.2563 206.599 94.4829 205.683 93.6463C205.11 93.1234 203.998 93.2671 203.579 93.9223C203.393 94.214 204.258 94.0936 204.389 93.8918Z" fill="#CC6144"/>
</g>
</g>
<g id="Group_30">
<g id="Group_31">
<path id="Vector_29" d="M205.68 95.3308C205.676 95.2518 205.683 95.1746 205.704 95.098C205.712 95.0746 205.707 95.0549 205.688 95.0387C205.363 94.6419 204.858 94.4575 204.368 94.6449C204.338 94.6563 204.234 94.7035 204.278 94.7502C204.395 94.8747 204.625 94.8699 204.774 94.9441C204.899 95.0058 204.993 95.0902 205.095 95.1806C205.202 95.2763 205.331 95.3158 205.444 95.408C205.493 95.4475 205.68 95.4056 205.68 95.3308Z" fill="#CC6144"/>
</g>
</g>
<g id="Group_32">
<g id="Group_33">
<path id="Vector_30" d="M219.37 110.708C219.823 111.339 220.804 111.667 221.506 111.244C221.559 111.212 221.556 111.172 221.488 111.175C220.86 111.205 220.288 111.026 219.91 110.5C219.818 110.372 219.262 110.557 219.37 110.708Z" fill="#CC6144"/>
</g>
</g>
<g id="Group_34">
<g id="Group_35">
<path id="Vector_31" d="M214.93 98.1637C214.86 98.6491 214.875 99.0394 215.151 99.4631C215.387 99.8252 215.69 100.092 216.121 100.175C216.169 100.184 216.421 100.132 216.36 100.048C216.128 99.7253 215.775 99.5421 215.571 99.1794C215.389 98.8556 215.224 98.4774 215.2 98.1069C215.195 98.0375 214.939 98.0985 214.93 98.1637Z" fill="#CC6144"/>
</g>
</g>
<g id="Group_36">
<g id="Group_37">
<path id="Vector_32" d="M229.285 101.126C229.33 101.126 229.439 101.059 229.344 101.059C229.299 101.059 229.19 101.126 229.285 101.126Z" fill="#CC6144"/>
</g>
</g>
<g id="Group_38">
<g id="Group_39">
<path id="Vector_33" d="M229.949 100.999C230.342 100.796 230.903 100.201 230.529 99.7533C230.5 99.7185 230.388 99.7604 230.372 99.7951C230.185 100.219 230.147 100.673 229.687 100.91C229.426 101.044 229.828 101.062 229.949 100.999Z" fill="#CC6144"/>
</g>
</g>
<g id="Group_40">
<g id="Group_41">
<path id="Vector_34" d="M229.356 173.012C229.526 170.469 230.689 168.479 232.247 166.51C233.456 164.983 234.964 163.994 236.351 162.679C236.502 162.536 236.347 162.264 236.146 162.327C234.124 162.958 232.486 165.017 231.275 166.659C230.007 168.38 228.247 170.805 229.025 173.057C229.087 173.238 229.343 173.204 229.356 173.012Z" fill="#874C2E"/>
</g>
</g>
<g id="Group_42">
<g id="Group_43">
<path id="Vector_35" d="M229.054 174.524C229.696 173.743 230.101 172.786 230.664 171.946C231.331 170.95 232.107 170.025 232.963 169.186C233.129 169.024 234.715 167.403 234.869 168.704C234.967 169.527 233.324 169.836 232.841 170.129C232.298 170.459 231.932 170.718 231.93 171.386C231.93 171.603 232.252 171.71 232.355 171.501C233.001 170.203 235.329 170.246 235.574 168.506C235.673 167.807 235.111 167.361 234.429 167.432C233.203 167.561 231.926 169.35 231.239 170.206C230.279 171.405 229.147 172.894 228.919 174.445C228.909 174.515 228.996 174.595 229.054 174.524Z" fill="#874C2E"/>
</g>
</g>
<g id="Group_44">
<g id="Group_45">
<path id="Vector_36" d="M205.295 206.106C205.299 208.178 205.263 210.182 204.537 212.154C203.816 214.117 202.505 215.615 201.291 217.274C201.198 217.4 201.373 217.542 201.492 217.476C205.036 215.512 206.83 209.819 205.618 206.062C205.563 205.889 205.294 205.914 205.295 206.106Z" fill="#874C2E"/>
</g>
</g>
<g id="Group_46">
<g id="Group_47">
<path id="Vector_37" d="M221.077 187.046C220.569 190.24 219.979 193.146 218.331 195.987C216.694 198.809 214.357 201.26 211.619 203.032C211.4 203.174 211.595 203.514 211.824 203.383C217.311 200.254 221.931 193.671 221.553 187.11C221.538 186.855 221.122 186.761 221.077 187.046Z" fill="#874C2E"/>
</g>
</g>
<g id="Group_48">
<g id="Group_49">
<path id="Vector_38" d="M239.051 105.789C239.741 105.507 240.626 105.239 241.064 104.598C241.131 104.499 241.041 104.374 240.933 104.371C240.181 104.349 239.448 104.901 238.837 105.282C238.584 105.44 238.748 105.913 239.051 105.789Z" fill="#874C2E"/>
</g>
</g>
<g id="Group_50">
<g id="Group_51">
<path id="Vector_39" d="M239.15 107.58C239.566 107.866 240.246 108.129 240.723 107.837C240.861 107.753 240.866 107.545 240.723 107.461C240.527 107.348 240.292 107.32 240.074 107.266C239.836 107.209 239.603 107.134 239.377 107.041C239.05 106.907 238.892 107.403 239.15 107.58Z" fill="#874C2E"/>
</g>
</g>
<g id="Group_52">
<g id="Group_53">
<path id="Vector_40" d="M238.515 110.982C238.921 111.224 239.462 111.611 239.957 111.578C240.077 111.57 240.169 111.443 240.1 111.33C239.838 110.904 239.23 110.694 238.796 110.503C238.477 110.363 238.201 110.795 238.515 110.982Z" fill="#874C2E"/>
</g>
</g>
</g>
<g id="Group_54">
<path id="Vector_41" d="M23.5469 225.338H39.7667H67.053H78.4188H107.094H317.873H328.371H337.271" stroke="#363636" stroke-width="2.1886" stroke-miterlimit="10" stroke-linecap="round"/>
<path id="Vector_42" d="M19.5808 225.341H2" stroke="#363636" stroke-width="2.1886" stroke-miterlimit="10" stroke-linecap="round"/>
<path id="Vector_43" d="M342.755 225.34H339.808" stroke="black" stroke-width="2.1886" stroke-miterlimit="10" stroke-linecap="round"/>
</g>
<g id="Group_55">
<path id="Vector_44" d="M302.008 221.72H202.657C201.697 221.72 200.916 222.501 200.916 223.462V223.589C200.916 224.55 201.697 225.331 202.657 225.331H302.008C302.968 225.331 303.749 224.55 303.749 223.589V223.462C303.749 222.501 302.968 221.72 302.008 221.72Z" fill="#2D2442"/>
<g id="Group_56">
<path id="Vector_45" d="M321.407 177.431C300.734 177.222 280.061 177.013 259.388 176.804C256.452 176.774 253.517 176.745 250.581 176.715C250.125 176.71 249.536 176.981 249.344 177.425C243.664 190.548 237.984 203.67 232.304 216.793C231.494 218.666 230.683 220.539 229.872 222.412C229.845 222.474 229.831 222.536 229.812 222.597C229.812 222.599 229.811 222.6 229.811 222.6C229.793 222.661 229.776 222.721 229.766 222.781C229.603 223.541 229.989 224.433 230.923 224.547C231.141 224.611 231.363 224.625 231.573 224.571C252.821 224.737 274.068 224.903 295.316 225.069C298.349 225.093 301.382 225.116 304.416 225.14C305.093 225.146 305.571 224.683 305.796 224.089C311.46 209.141 317.123 194.193 322.787 179.245C323.126 178.352 322.264 177.44 321.407 177.431Z" fill="#2D2442"/>
<g id="Group_57">
<path id="Vector_46" d="M321.406 176.448C302.324 176.255 283.241 176.062 264.158 175.869C261.834 175.846 259.51 175.822 257.185 175.799C255.083 175.778 252.653 175.409 250.58 175.731C247.5 176.211 246.709 181.055 245.656 183.49C241.869 192.238 238.082 200.987 234.295 209.735C232.673 213.483 231.046 217.229 229.429 220.979C228.818 222.393 228.223 224.105 229.83 225.179C230.641 225.721 231.872 225.551 232.753 225.563C235.114 225.596 237.475 225.6 239.836 225.618C244.558 225.655 249.28 225.692 254.001 225.729C263.445 225.803 272.888 225.877 282.331 225.951C287.039 225.987 291.746 226.024 296.453 226.061C298.349 226.076 300.245 226.09 302.14 226.105C303.603 226.117 305.052 226.397 306.183 225.321C307.409 224.156 307.823 221.5 308.401 219.974C309.23 217.786 310.059 215.599 310.887 213.411C312.821 208.307 314.755 203.203 316.689 198.099C318.484 193.359 320.28 188.619 322.076 183.88C322.975 181.507 325.478 177.467 321.666 176.482C320.441 176.166 319.919 178.062 321.144 178.379C322.398 178.703 318.121 188.794 317.695 189.921C316.313 193.567 314.932 197.212 313.551 200.858C312.169 204.505 310.788 208.15 309.406 211.796C308.785 213.437 308.163 215.078 307.541 216.718C306.864 218.506 306.374 221.154 305.262 222.733C303.829 224.768 300.846 224.129 298.727 224.113C296.803 224.098 294.878 224.083 292.954 224.068C289.019 224.037 285.085 224.006 281.149 223.975C273.28 223.914 265.41 223.853 257.541 223.791C249.672 223.729 241.802 223.668 233.932 223.607C233.118 223.6 231.74 223.949 231.164 223.225C230.43 222.302 230.845 223.635 231.124 221.972C231.357 220.587 232.391 219.045 232.948 217.758C234.593 213.956 236.238 210.155 237.884 206.354C241.039 199.064 244.195 191.773 247.351 184.483C248.051 182.865 248.616 180.33 249.717 179.015C251.19 177.256 253.522 177.728 255.532 177.749C259.6 177.79 263.667 177.831 267.734 177.872C285.624 178.053 303.514 178.234 321.404 178.415C322.671 178.427 322.672 176.461 321.406 176.448Z" fill="#2D2442"/>
</g>
</g>
<path id="Vector_47" d="M273.807 205.898C276.454 205.898 278.599 204.333 278.599 202.402C278.599 200.472 276.454 198.907 273.807 198.907C271.16 198.907 269.015 200.472 269.015 202.402C269.015 204.333 271.16 205.898 273.807 205.898Z" fill="#5A4F72"/>
<path id="Vector_48" d="M283.021 204.581C284.401 204.581 285.521 203.765 285.521 202.758C285.521 201.751 284.401 200.934 283.021 200.934C281.64 200.934 280.521 201.751 280.521 202.758C280.521 203.765 281.64 204.581 283.021 204.581Z" fill="#5A4F72"/>
</g>
<g id="Group_58">
<path id="Vector_49" d="M165.85 212.548C168.909 212.181 174.325 211.359 174.461 209.475C172.482 208.195 170.299 206.9 167.945 206.785C166.067 206.693 164.245 207.386 162.527 208.15C161.066 208.8 159.632 209.51 158.229 210.278C157.653 210.593 156.146 211.721 156.122 212.506C156.093 213.481 157.883 212.905 158.594 212.955C161.018 213.127 163.446 212.836 165.85 212.548Z" fill="#C1ADA4"/>
<path id="Vector_50" d="M158.624 210.951C158.624 210.951 162.692 224.278 164.844 224.597C166.998 224.916 188.052 225.076 188.61 224.837C189.169 224.597 189.248 224.198 189.248 224.198C189.248 224.198 202.647 225.076 202.885 224.757C203.124 224.438 202.885 222.842 202.247 222.602C201.609 222.362 181.353 217.814 179.598 217.175C177.844 216.537 172.341 216.697 172.341 216.697L171.225 208.956L158.624 210.951Z" fill="#F5C9AF"/>
<path id="Vector_51" d="M163.538 43.7344C164.857 45.1484 165.573 47.1086 165.475 49.0407C165.417 50.1924 165.085 51.3111 164.739 52.4113C164.073 54.529 163.284 56.7228 161.637 58.2117C161.37 58.453 161.035 58.686 160.681 58.6219C160.021 56.5881 159.361 54.5536 158.701 52.5197C158.384 51.5423 158.066 50.5607 157.887 49.5486C157.585 47.8375 157.695 46.0462 158.273 44.4082C158.536 43.6643 158.913 42.9289 159.54 42.451C161.07 41.2861 162.499 42.621 163.538 43.7344Z" fill="#433735"/>
<g id="Group_59">
<g id="Group_60">
<path id="Vector_52" d="M124.527 156.471C124.313 158.555 124.634 160.756 124.75 162.839C124.816 164.023 124.882 165.211 124.879 166.397C124.877 167.085 124.673 167.922 124.909 168.57C124.934 168.638 125.033 168.685 125.089 168.617C126.009 167.495 125.487 164.819 125.445 163.467C125.372 161.136 125.262 158.802 125.171 156.471C125.155 156.05 124.569 156.065 124.527 156.471Z" fill="#9B8580"/>
</g>
</g>
<g id="Group_61">
<g id="Group_62">
<path id="Vector_53" d="M130.461 152.36C128.247 157.392 127.017 162.513 123.982 167.216C123.811 167.483 124.237 167.731 124.407 167.464C127.09 163.246 130.009 157.458 130.714 152.467C130.732 152.329 130.53 152.202 130.461 152.36Z" fill="#9B8580"/>
</g>
</g>
<path id="Vector_54" d="M81.7886 225.34L83.1508 179.3L93.152 225.34H121.832C119.927 210.024 111.471 146.007 102.635 140.581L67.9233 118.953C67.9233 118.953 47.8359 124.196 48.2747 153.249C49.8793 181.233 53.298 214.165 54.5034 225.34L81.7886 225.34Z" fill="#4E3957"/>
<path id="Vector_55" d="M174.385 209.522C173.64 210.651 169.85 209.803 168.729 209.912C167.726 210.009 166.776 210.389 165.801 210.643C162.698 211.453 159.233 211.027 156.443 212.61C156.357 212.659 156.258 212.711 156.162 212.683C156.057 212.65 156.006 212.534 155.968 212.431C154.187 207.494 152.794 202.342 151.235 197.311C148.891 189.751 146.546 182.191 144.203 174.631C142.992 170.727 141.781 166.821 140.57 162.916L132.056 123.43L135.841 95.596L136.738 89.029L136.804 88.5308C136.804 88.5308 136.987 88.596 137.327 88.714C138.513 89.1333 141.558 90.2736 144.932 91.9188C150.335 94.5599 156.583 98.5187 157.435 103.001C157.437 103.017 157.439 103.033 157.441 103.048C157.891 106.19 158.396 109.325 158.89 112.46C159.765 118.022 160.651 123.582 161.54 129.142C162.645 136.06 163.756 142.978 164.869 149.895C166.028 157.103 167.19 164.31 168.353 171.517C169.391 177.948 170.431 184.379 171.471 190.81C172.213 195.397 172.956 199.985 173.699 204.572C173.905 205.841 174.11 207.111 174.316 208.38C174.353 208.603 174.543 209.122 174.472 209.34C174.451 209.406 174.422 209.466 174.385 209.522Z" fill="#EAD0C2"/>
<path id="Vector_56" d="M136.804 88.5311L136.739 89.0293L135.841 95.5963L132.056 123.43L113.527 134.853C112.56 135.45 111.727 139.551 111.333 140.578C110.054 143.915 108.937 147.38 107.475 150.641C107.175 151.309 106.906 153.129 106.242 153.535C104.906 154.353 99.4749 153.232 97.7979 153.124C91.5883 152.724 85.3122 151.812 79.6329 149.134C75.1428 147.017 71.1663 144.021 66.9402 141.451C64.3576 139.88 61.4781 138.899 58.7447 137.636C56.9192 136.793 52.9738 135.176 52.2705 133.027C52.0677 132.407 52.3819 131.748 52.6811 131.168C53.9859 128.639 54.8537 125.592 56.3949 123.244C57.8158 121.079 59.5659 119.127 60.9514 116.909C63.7399 112.446 66.201 107.732 69.6838 103.751C75.6121 96.9732 80.5935 89.2288 86.7008 82.4702C89.4121 79.4685 97.8613 76.6111 101.902 76.447C105.576 76.2961 109.139 76.8992 112.257 77.7706C114.765 78.4785 116.992 79.3565 118.747 80.1494C121.321 81.3161 122.886 82.3055 122.886 82.3055L136.804 88.5311Z" fill="#EAD0C2"/>
<g id="XMLID_56_">
<g id="XMLID_66_">
<path id="Vector_57" d="M143.651 125.559C145.603 124.358 154.719 118.536 155.536 116.432C155.914 115.456 157.983 112.449 159.769 109.629C160.827 107.96 163.505 104.684 164.182 103.983C165.341 102.78 167.016 99.7992 168.027 100.78C169.286 102.001 167.319 105.058 166.21 106.932C165.803 107.62 165.366 108.311 165.19 109.09C165.014 109.87 165.053 110.451 165.51 111.107C165.759 111.463 167.463 111.634 168.034 111.609C172.34 111.42 174.208 111.673 177.42 110.476C180.631 109.28 183.632 107.59 186.661 105.987C187.18 105.712 187.495 105.149 188.667 105.04C189.252 104.986 190.489 105.066 190.424 105.65C190.372 106.104 186.755 108.932 186.382 109.197C184.377 110.622 184.602 110.461 182.597 111.887C182.286 112.109 181.95 112.366 181.874 112.74C181.81 113.055 181.946 113.373 181.953 113.694C181.964 114.268 181.567 114.761 181.177 115.182C180.491 115.92 179.761 116.61 179 117.263C177.934 118.177 178.804 118.956 177.643 119.758C176.363 120.642 173.044 121.541 171.732 122.371C170.682 123.037 169.626 123.705 168.473 124.167C167.092 124.72 165.61 124.961 164.153 125.262C160.159 126.086 153.171 133.327 149.792 135.718" fill="#F5C9AF"/>
</g>
<path id="XMLID_64_" d="M166.582 124.732C166.582 124.732 171.601 124.096 175.594 122.238C179.588 120.38 189.456 114.287 189.456 114.287C189.456 114.287 189.592 113.941 189.487 113.699C189.382 113.458 187.883 113.123 186.675 113.648C185.468 114.174 177.735 117.532 177.735 117.532" fill="#F5C9AF"/>
<path id="XMLID_58_" d="M165.586 123.046C165.586 123.046 171.946 121.719 175.939 119.86C179.932 118.002 189.801 111.909 189.801 111.909C189.801 111.909 189.937 111.562 189.832 111.32C189.728 111.078 188.229 110.744 187.021 111.27C185.812 111.794 178.081 115.153 178.081 115.153" fill="#F5C9AF"/>
<path id="XMLID_57_" d="M167.595 119.385C167.595 119.385 173.954 118.057 177.948 116.2C181.941 114.342 188.142 111.167 191.655 108.767C191.887 108.609 191.947 107.902 191.842 107.661C191.737 107.419 190.238 107.085 189.03 107.61C187.822 108.134 180.09 111.493 180.09 111.493" fill="#F5C9AF"/>
</g>
<path id="Vector_58" d="M144.007 81.2675C144.007 81.2675 159.398 90.6613 163 71.6551C163.874 63.7909 164.965 51.0109 158.416 46.0137C151.866 41.0164 136.802 40.4433 136.475 55.2709C137.047 59.5309 136.884 59.8585 136.884 59.8585C136.884 59.8585 131.235 58.302 132.463 65.3475C133.118 68.5426 133.964 69.6895 133.964 69.6895C133.964 69.6895 122.406 78.7461 122.394 78.7557C121.33 79.5894 120.439 80.9776 118.964 80.3081C118.803 80.235 118.647 80.1422 118.472 80.1134C118.298 80.0847 118.094 80.138 118.009 80.2931C117.955 80.3913 117.959 80.5099 117.955 80.6219C117.94 81.1879 117.717 81.7245 117.566 82.2695C116.983 84.362 117.587 86.3205 118.688 88.1243C119.624 89.6587 120.948 90.9608 122.518 91.8381C124.021 92.6772 125.707 93.1336 127.4 93.4402C129.529 93.8259 131.789 93.9744 133.896 93.3881C135.188 93.0288 136.067 92.6263 136.969 91.5776C137.138 91.3812 137.298 91.1746 137.412 90.9422C137.67 90.4175 137.679 89.8085 137.675 89.2233C137.674 89.1419 137.67 89.0532 137.617 88.9922C137.56 88.9281 137.468 88.9149 137.384 88.9011C136.446 88.7424 137.065 88.2507 137.458 87.8393C137.848 87.432 138.241 87.0278 138.635 86.6253C139.463 85.7796 140.298 84.9412 141.136 84.1051C142.089 83.1547 143.045 82.2078 144.007 81.2675Z" fill="#F5C9AF"/>
<path id="Vector_59" d="M155.469 65.5794C156.068 65.5794 156.554 64.6198 156.554 63.436C156.554 62.2522 156.068 61.2925 155.469 61.2925C154.869 61.2925 154.383 62.2522 154.383 63.436C154.383 64.6198 154.869 65.5794 155.469 65.5794Z" fill="#56211A"/>
<g id="Group_63">
<g id="Group_64">
<path id="Vector_60" d="M157.817 56.0598C155.469 55.1967 151.422 56.1232 149.936 58.2168C149.834 58.3599 150.005 58.5915 150.173 58.5251C151.352 58.0576 152.341 57.3053 153.591 56.9504C154.991 56.553 156.324 56.6649 157.745 56.5972C158.061 56.5823 158.105 56.1657 157.817 56.0598Z" fill="#433735"/>
</g>
</g>
<path id="Vector_61" d="M163.573 61.4766C163.22 62.6157 163.576 63.9147 164.037 65.0143C164.499 66.1139 165.208 67.0889 165.911 68.0525C166.227 68.4861 166.544 68.9197 166.86 69.3533C165.869 69.6827 164.904 70.0894 163.977 70.5685C163.42 70.8566 162.82 71.2471 162.709 71.8651" fill="#FE8E68"/>
<path id="Vector_62" d="M156.487 73.0145C157.15 73.2415 157.864 73.32 158.559 73.2337C158.629 73.2253 158.71 73.2193 158.757 73.2714C158.787 73.305 158.793 73.3529 158.796 73.3978C158.842 74.0848 158.548 74.7435 158.26 75.3688C158.067 75.7886 157.869 76.2151 157.565 76.5636C156.927 77.2943 155.495 77.7578 154.585 77.3122C154.176 77.1122 153.875 76.7415 153.64 76.351C153.002 75.2897 152.551 73.4942 153.094 72.297C153.456 71.4969 153.55 71.7928 154.254 72.1162C154.904 72.415 155.581 72.6534 156.241 72.9217C156.322 72.9552 156.404 72.9858 156.487 73.0145Z" fill="#FFFBF9"/>
<path id="Vector_63" d="M144.552 122.229C133.324 127.446 115.844 136.865 115.844 136.865L113.333 118.733L86.917 118.952C86.917 118.952 94.5582 161.114 100.452 165.047C100.452 165.047 107.438 170.289 118.791 162.425C126.283 157.236 143.713 143.588 152.276 136.129L144.552 122.229Z" fill="#EAD0C2"/>
<g id="Group_65">
<g id="Group_66">
<path id="Vector_64" d="M94.923 152.789C94.7518 149.891 93.3794 146.747 92.6421 143.946C91.5952 139.967 90.5454 135.991 89.5675 131.995C87.8001 124.775 86.2936 117.513 84.7165 110.253C84.6704 110.041 84.3167 110.084 84.3346 110.304C84.9218 117.542 86.8334 124.786 88.5733 131.813C89.5334 135.688 90.5197 139.56 91.6042 143.402C92.4415 146.368 93.0341 150.21 94.6363 152.866C94.7123 152.991 94.9326 152.946 94.923 152.789Z" fill="#DBC4BD"/>
</g>
</g>
<g id="Group_67">
<g id="Group_68">
<path id="Vector_65" d="M151.637 135.175C146.153 138.795 141.266 143.543 136.77 148.305C136.377 148.722 137.004 149.352 137.4 148.935C141.973 144.111 147.025 140.034 152.102 135.778C152.435 135.499 152 134.936 151.637 135.175Z" fill="#DBC4BD"/>
</g>
</g>
<g id="Group_69">
<g id="Group_70">
<path id="Vector_66" d="M133.306 128.054C135.118 127.781 136.937 126.852 138.573 126.048C139.999 125.348 141.877 124.683 142.816 123.36C142.984 123.124 142.707 122.89 142.481 122.924C140.93 123.158 139.431 124.42 138.031 125.12C136.406 125.933 134.605 126.531 133.074 127.502C132.769 127.695 132.979 128.103 133.306 128.054Z" fill="#DBC4BD"/>
</g>
</g>
<g id="Group_71">
<g id="Group_72">
<path id="Vector_67" d="M118.274 79.8518C116.245 77.7646 114.256 81.4832 113.648 83.1775C112.017 87.7136 112.991 93.1181 114.31 97.5949C115.916 103.044 118.602 108.032 120.037 113.552C121.671 119.839 122.874 126.137 122.628 132.659C122.613 133.061 123.224 133.055 123.25 132.659C123.809 124.156 121.764 114.647 118.594 106.781C116.993 102.808 115.197 98.9897 114.25 94.7848C113.718 92.4215 113.381 89.9523 113.492 87.5249C113.535 86.5744 115.163 77.5196 117.85 80.2752C118.12 80.5519 118.542 80.1285 118.274 79.8518Z" fill="#9B8580"/>
</g>
</g>
<g id="Group_73">
<g id="Group_74">
<path id="Vector_68" d="M138.493 87.6811C139.005 88.5363 139.517 89.3909 140.03 90.2462C140.132 90.8181 140.234 91.3895 140.336 91.9614C140.389 92.5885 140.361 93.2305 140.32 93.857C140.207 95.565 139.785 97.242 139.508 98.9273C138.975 102.179 138.561 105.449 138.007 108.699C136.938 114.965 135.507 121.151 133.484 127.181C133.373 127.514 133.893 127.652 134.008 127.325C136.833 119.262 138.372 110.889 139.632 102.459C140.215 98.556 143.543 89.243 138.288 87.2169C138.076 87.1355 137.874 87.3768 137.93 87.5745C137.947 87.6332 137.964 87.6919 137.98 87.7506C138.062 88.0386 138.48 87.9733 138.493 87.6811Z" fill="#9B8580"/>
</g>
</g>
<path id="Vector_69" d="M131.206 164.8C131.211 164.267 130.728 163.726 130.17 163.763C126.395 164.016 122.62 164.27 118.845 164.523C118.274 164.561 117.825 164.967 117.809 165.56C117.645 171.377 117.954 177.261 117.645 183.069C117.617 183.599 118.143 184.147 118.681 184.107C122.402 183.824 126.126 183.575 129.843 183.256C129.873 183.253 129.899 183.244 129.928 183.24C130.352 183.266 130.756 183.048 130.843 182.494C131.738 176.781 131.163 170.576 131.206 164.8Z" fill="#D6CED7"/>
<g id="Group_75">
<g id="Group_76">
<path id="Vector_70" d="M131.924 62.9621C130.228 63.1921 128.939 63.5982 127.705 62.0416C127.211 61.4181 126.812 60.7641 126.043 60.4743C125.944 60.4371 125.866 60.5815 125.941 60.6497C126.899 61.5253 127.588 63.0292 128.849 63.5113C129.847 63.8928 131.082 63.6179 132.007 63.1586C132.126 63.0993 132.034 62.9471 131.924 62.9621Z" fill="#594C4A"/>
</g>
</g>
<path id="Vector_71" d="M155.195 68.8699C158.089 68.8699 160.435 66.5226 160.435 63.6271C160.435 60.7316 158.089 58.3843 155.195 58.3843C152.302 58.3843 149.956 60.7316 149.956 63.6271C149.956 66.5226 152.302 68.8699 155.195 68.8699Z" stroke="#F9F9F9" stroke-width="1.0943" stroke-miterlimit="10"/>
<g id="Group_77">
<g id="Group_78">
<path id="Vector_72" d="M160.595 62.25C160.788 62.1375 160.871 61.9573 161.042 61.8131C161.291 61.6012 161.62 61.4821 161.939 61.4241C162.234 61.3696 162.547 61.369 162.83 61.4791C163.094 61.5827 163.157 61.8299 163.397 61.9352C163.464 61.9645 163.525 61.9502 163.569 61.8903C163.588 61.864 163.607 61.8376 163.627 61.8113C163.677 61.7413 163.66 61.6473 163.627 61.5755C163.319 60.9183 162.444 60.8603 161.82 60.9925C161.288 61.105 160.332 61.5126 160.43 62.1824C160.441 62.2566 160.539 62.2829 160.595 62.25Z" fill="#F9F9F9"/>
</g>
</g>
<g id="Group_79">
<path id="Vector_73" d="M131.852 54.2321C134.527 56.1605 151.258 53.7949 156.657 51.3184C167.635 46.284 168.71 37.4119 166.145 35.7457C165.836 35.5445 165.492 35.384 165.125 35.3397C164.265 35.2355 163.472 35.7703 162.77 36.2793C163.046 35.2762 164.043 30.9048 161.379 29.171C157.802 26.843 153.297 30.7796 152.565 31.2701C147.461 34.6881 144.703 35.272 144.703 35.272C144.703 35.272 145.603 26.6532 138.549 33.2747C136.327 35.36 132.204 37.3047 129.991 39.399C127.67 41.5946 126.348 45.1844 127.687 48.2508" fill="#433735"/>
</g>
<g id="Group_80">
<path id="Vector_74" d="M139.694 49.0098C141.223 50.2561 141.909 52.2523 142.351 54.176C143.016 57.0722 143.282 60.1554 142.36 62.9804C142.098 63.7836 142.423 67.4938 141.795 67.3907C141.596 67.3584 141.156 64.5154 140.403 63.0667C139.239 60.8226 135.534 60.5129 134.185 62.2743C132.513 64.4561 133.587 65.9917 134.33 68.1669C134.881 69.7828 134.337 71.8136 132.362 72.3742C130.522 72.8959 131.05 71.501 130.317 70.193C128.739 67.3812 127.085 64.9197 126.024 61.7868C124.352 56.8465 122.975 49.3488 128.142 45.9261C129.434 45.0696 133.695 44.0258 135.133 44.6055" fill="#433735"/>
</g>
<path id="Vector_75" d="M155.85 65.0055C156.11 65.0055 156.321 64.7306 156.321 64.3914C156.321 64.0523 156.11 63.7773 155.85 63.7773C155.591 63.7773 155.38 64.0523 155.38 64.3914C155.38 64.7306 155.591 65.0055 155.85 65.0055Z" fill="white"/>
<g id="Group_81">
<g id="Group_82">
<path id="Vector_76" d="M138.435 60.0324C139.205 61.5524 140.997 61.8525 142.516 62.234C144.709 62.7838 147.051 63.218 149.319 63.2096C149.715 63.2084 149.69 62.6574 149.319 62.6107C147.375 62.3664 145.444 62.1957 143.523 61.7776C141.946 61.4345 139.797 61.1314 138.723 59.809C138.585 59.6395 138.345 59.8557 138.435 60.0324Z" fill="#F9F9F9"/>
</g>
</g>
<g id="Group_83">
<g id="Group_84">
<path id="Vector_77" d="M140.864 77.4947C141.678 79.0537 142.958 80.588 144.55 81.3924C144.623 81.4289 144.7 81.3385 144.639 81.2768C143.382 80.0011 142.134 78.8291 141.064 77.3779C140.978 77.2593 140.794 77.3594 140.864 77.4947Z" fill="#CC6144"/>
</g>
</g>
<g id="Group_85">
<g id="Group_86">
<path id="Vector_78" d="M172.245 59.008C172.993 58.519 173.797 58.0587 174.391 57.38C174.434 57.3315 174.394 57.2322 174.322 57.2603C173.485 57.5841 172.781 58.1712 172.067 58.7033C171.889 58.8356 172.051 59.1348 172.245 59.008Z" fill="#433735"/>
</g>
</g>
<g id="Group_87">
<g id="Group_88">
<path id="Vector_79" d="M173.33 61.0913C173.89 60.9716 174.601 60.8411 175.077 60.5101C175.202 60.4227 175.156 60.233 175 60.224C174.42 60.1911 173.747 60.4515 173.206 60.6424C172.924 60.7423 173.035 61.1547 173.33 61.0913Z" fill="#433735"/>
</g>
</g>
<g id="Group_89">
<g id="Group_90">
<path id="Vector_80" d="M173.533 63.6608C173.883 63.5668 174.23 63.486 174.59 63.4459C174.883 63.413 175.185 63.4154 175.472 63.3496C175.556 63.3304 175.578 63.197 175.497 63.158C174.876 62.8576 174.036 63.0036 173.421 63.2514C173.173 63.3508 173.262 63.7338 173.533 63.6608Z" fill="#433735"/>
</g>
</g>
<g id="Group_91">
<g id="Group_92">
<path id="Vector_81" d="M62.8169 140.333C61.2919 140.284 61.3535 142.667 61.2135 143.687C61.0231 145.069 60.6353 146.855 61.8234 147.9C62.0287 148.081 62.304 147.948 62.3315 147.69C62.3387 147.625 62.3453 147.56 62.3525 147.496C62.368 147.348 62.195 147.297 62.0885 147.344C62.0203 147.373 61.952 147.403 61.8838 147.433C62.0197 147.468 62.1555 147.504 62.2914 147.539C61.5929 146.475 61.6689 145.441 61.821 144.239C61.9736 143.028 61.8868 141.421 62.9252 140.593C63.0342 140.505 62.9366 140.336 62.8169 140.333Z" fill="black"/>
</g>
</g>
<g id="Group_93">
<g id="Group_94">
<path id="Vector_82" d="M64.5576 141.497C63.6072 143.068 63.378 145.981 64.1524 147.653C64.244 147.851 64.5307 147.737 64.5385 147.548C64.5798 146.541 64.3356 145.554 64.3954 144.536C64.4547 143.53 64.748 142.57 64.8359 141.572C64.8497 141.418 64.6295 141.378 64.5576 141.497Z" fill="black"/>
</g>
</g>
<g id="Group_95">
<g id="Group_96">
<path id="Vector_83" d="M94.0314 154.168C93.8297 154.791 93.6382 155.421 93.3623 156.016C93.1091 156.563 92.7267 157.041 92.4873 157.589C92.3747 157.846 92.6602 158.1 92.8865 157.897C93.8184 157.061 94.3319 155.436 94.4223 154.221C94.4396 153.988 94.0979 153.963 94.0314 154.168Z" fill="black"/>
</g>
</g>
<g id="Group_97">
<g id="Group_98">
<path id="Vector_84" d="M95.3614 156.304C95.1717 156.991 94.8581 157.561 94.5415 158.191C94.4068 158.459 94.7773 158.802 94.9861 158.534C95.462 157.922 95.6834 157.119 95.7373 156.355C95.7529 156.136 95.4177 156.1 95.3614 156.304Z" fill="black"/>
</g>
</g>
<g id="Group_99">
<g id="Group_100">
<path id="Vector_85" d="M50.0307 140.248C51.919 141.386 53.8983 142.347 55.777 143.53C57.4176 144.563 59.1401 145.531 61.0895 145.79C61.3762 145.829 61.4384 145.347 61.1577 145.286C58.8935 144.791 57.0417 143.701 55.1103 142.464C53.6278 141.513 51.8921 140.209 50.0756 140.082C49.9846 140.076 49.9589 140.204 50.0307 140.248Z" fill="black"/>
</g>
</g>
<g id="Group_101">
<g id="Group_102">
<path id="Vector_86" d="M64.3312 146.174C69.1079 148.651 73.6166 151.716 78.51 153.953C80.7515 154.977 83.103 155.691 85.5157 156.184C87.8014 156.652 90.5073 157.288 92.8325 157.037C93.0689 157.012 93.1575 156.661 92.8924 156.594C90.4008 155.966 87.7002 156.021 85.1655 155.468C82.6212 154.913 80.1853 154.089 77.8457 152.943C73.3227 150.727 69.2067 147.602 64.4946 145.785C64.2701 145.699 64.1193 146.064 64.3312 146.174Z" fill="black"/>
</g>
</g>
<g id="Group_103">
<g id="Group_104">
<path id="Vector_87" d="M85.9864 180.233C86.7453 179.355 87.521 178.485 88.3996 177.723C88.8964 177.293 91.4371 175.033 92.2158 175.79C92.29 175.861 92.4295 175.79 92.3953 175.685C92.0063 174.485 90.3059 175.724 89.7397 176.097C88.1614 177.138 86.7735 178.462 85.8009 180.09C85.7339 180.203 85.8972 180.337 85.9864 180.233Z" fill="black"/>
</g>
</g>
<g id="Group_105">
<g id="Group_106">
<path id="Vector_88" d="M80.2979 179.535C77.9661 177.225 74.8586 175.613 71.541 175.478C71.447 175.474 71.4261 175.621 71.5189 175.642C74.7263 176.374 77.5615 177.579 80.0381 179.794C80.2135 179.951 80.4673 179.702 80.2979 179.535Z" fill="black"/>
</g>
</g>
<g id="Group_107">
<g id="Group_108">
<path id="Vector_89" d="M85.7546 181.763C88.609 182.77 90.8498 184.55 91.5046 187.645C91.6476 187.535 91.7907 187.425 91.9343 187.315C91.1952 186.84 90.5595 186.254 90.0179 185.564C89.633 185.074 89.3577 184.418 88.9106 183.983C88.4222 183.509 87.6478 183.349 87.0672 183.726C87.0343 183.748 87.0546 183.808 87.0953 183.793C88.3905 183.314 89.1261 185.321 89.7342 186.072C90.2878 186.755 90.9372 187.3 91.6393 187.821C91.8631 187.987 92.1139 187.714 92.069 187.49C91.4783 184.55 88.9429 181.623 85.7989 181.439C85.6026 181.427 85.5877 181.704 85.7546 181.763Z" fill="black"/>
</g>
</g>
<g id="Group_109">
<g id="Group_110">
<path id="Vector_90" d="M49.6882 159.706C52.6102 157.899 55.276 155.678 56.8752 152.58C57.0733 152.196 56.4946 151.856 56.2959 152.241C54.7463 155.243 52.1799 157.375 49.3495 159.126C48.9832 159.353 49.3196 159.934 49.6882 159.706Z" fill="black"/>
</g>
</g>
<g id="Group_111">
<g id="Group_112">
<path id="Vector_91" d="M84.6161 156.306C84.8178 159.33 85.2649 162.284 85.202 165.328C85.1362 168.521 84.731 171.691 84.0349 174.806C83.9685 175.102 84.4228 175.228 84.4898 174.932C85.1799 171.865 85.5953 168.757 85.6749 165.612C85.7521 162.548 85.6946 159.244 84.8681 156.272C84.8304 156.136 84.6059 156.157 84.6161 156.306Z" fill="black"/>
</g>
</g>
<g id="Group_113">
<g id="Group_114">
<path id="Vector_92" d="M84.0672 176.118C83.7823 176.597 83.7321 177.224 83.6279 177.766C83.5357 178.246 83.3472 178.793 83.5028 179.269C83.5328 179.361 83.6465 179.371 83.6991 179.295C83.993 178.87 83.9792 178.265 84.0708 177.765C84.1648 177.251 84.3611 176.709 84.321 176.186C84.3114 176.056 84.1402 175.995 84.0672 176.118Z" fill="black"/>
</g>
</g>
<g id="Group_115">
<g id="Group_116">
<path id="Vector_93" d="M88.8699 156.634C88.7879 159.023 88.8801 161.425 88.9028 163.815C88.9244 166.047 89.1326 168.363 88.9076 170.586C88.5371 174.248 84.9736 176.112 83.6407 179.33C83.5515 179.545 83.9226 179.703 84.0189 179.49C85.4213 176.389 88.8615 174.651 89.4187 171.114C89.7611 168.942 89.493 166.605 89.4565 164.415C89.4134 161.825 89.4463 159.22 89.2889 156.635C89.2727 156.365 88.8789 156.362 88.8699 156.634Z" fill="black"/>
</g>
</g>
<g id="Group_117">
<g id="Group_118">
<path id="Vector_94" d="M115.962 87.6806C115.912 92.1484 120.615 94.9675 124.631 95.3616C124.951 95.3927 124.966 94.9327 124.702 94.8351C122.818 94.1386 120.906 93.7829 119.24 92.5701C117.646 91.41 116.472 89.6678 116.248 87.6806C116.229 87.5016 115.965 87.4914 115.962 87.6806Z" fill="#C1ADA4"/>
</g>
</g>
<g id="Group_119">
<g id="Group_120">
<path id="Vector_95" d="M127.143 95.332C127.774 95.4715 128.409 95.4625 129.051 95.4721C129.704 95.4817 130.326 95.5062 130.948 95.2883C131.095 95.2369 131.095 95.0417 130.948 94.9903C130.326 94.7724 129.704 94.7964 129.051 94.8065C128.409 94.8161 127.773 94.8071 127.143 94.9466C126.952 94.9885 126.952 95.2901 127.143 95.332Z" fill="#C1ADA4"/>
</g>
</g>
<g id="Group_121">
<g id="Group_122">
<path id="Vector_96" d="M84.337 111.521C84.2269 110.408 83.8858 109.448 83.14 108.6C82.5678 107.949 81.3702 106.982 80.4449 107.218C80.2839 107.259 80.2067 107.494 80.3419 107.609C80.6574 107.878 81.0284 107.926 81.4013 108.102C81.8544 108.316 82.2632 108.611 82.6289 108.953C83.3603 109.636 83.9253 110.564 84.0934 111.555C84.1156 111.691 84.3508 111.661 84.337 111.521Z" fill="#C1ADA4"/>
</g>
</g>
<g id="Group_123">
<g id="Group_124">
<path id="Vector_97" d="M139.344 67.1272C139.832 65.5222 138.202 62.2827 136.238 62.9685C135.663 63.1691 136.031 63.4488 136.48 63.326C136.959 63.1954 137.887 64.7897 138.031 65.0646C138.396 65.7605 138.458 66.5535 138.807 67.241C138.88 67.3842 139.304 67.2584 139.344 67.1272Z" fill="#CC6144"/>
</g>
</g>
<g id="Group_125">
<g id="Group_126">
<path id="Vector_98" d="M138.182 64.808C138.167 64.2736 137.685 63.9976 137.189 64.0503C136.925 64.0784 136.637 64.167 136.425 64.3304C136.299 64.4286 136.125 64.6422 136.262 64.7835C136.338 64.8613 136.543 64.7751 136.611 64.7272C136.806 64.5914 136.91 64.3639 137.137 64.4621C137.35 64.5543 137.503 64.7542 137.572 64.9708C137.627 65.1438 138.188 64.984 138.182 64.808Z" fill="#CC6144"/>
</g>
</g>
<g id="Group_127">
<g id="Group_128">
<path id="Vector_99" d="M153.978 64.8211C154.063 65.4226 154.477 65.8164 155.097 65.7961C155.121 65.7955 155.3 65.7488 155.247 65.7027C155.095 65.5686 154.906 65.4866 154.751 65.349C154.569 65.1874 154.377 64.9647 154.283 64.7397C154.248 64.6571 153.965 64.7325 153.978 64.8211Z" fill="#CC6144"/>
</g>
</g>
<g id="Group_129">
<g id="Group_130">
<path id="Vector_100" d="M112.16 105.519C112.381 111.827 113.151 118.106 113.959 124.362C114.373 127.572 114.548 131.25 115.438 134.268C115.532 134.59 115.968 134.447 115.925 134.134C115.924 134.13 115.924 134.126 115.923 134.122C115.879 133.801 115.392 133.938 115.436 134.256C115.437 134.26 115.437 134.264 115.438 134.268C115.6 134.223 115.763 134.178 115.925 134.134C115.968 134.281 115.936 133.604 115.923 133.446C115.869 132.803 115.744 132.159 115.653 131.52C115.303 129.073 114.971 126.623 114.654 124.171C113.854 117.967 113.141 111.747 112.561 105.518C112.537 105.267 112.151 105.258 112.16 105.519Z" fill="#C1ADA4"/>
</g>
</g>
<g id="Group_131">
<g id="Group_132">
<path id="Vector_101" d="M123.007 133.057C120.545 133.595 118.264 134.718 115.982 135.792C113.625 136.902 111.189 137.952 109.04 139.439C108.886 139.546 108.975 139.817 109.173 139.757C114.045 138.288 118.486 135.366 123.126 133.339C123.294 133.266 123.169 133.021 123.007 133.057Z" fill="#C1ADA4"/>
</g>
</g>
<g id="Group_133">
<g id="Group_134">
<path id="Vector_102" d="M165.382 159.54C164.728 161.878 164.583 164.172 163.607 166.449C162.577 168.852 161.057 170.715 159.447 172.74C159.25 172.987 159.547 173.289 159.793 173.087C161.762 171.469 163.216 169.017 164.21 166.703C165.114 164.598 166.041 161.862 165.672 159.54C165.649 159.387 165.419 159.407 165.382 159.54Z" fill="#C1ADA4"/>
</g>
</g>
<g id="Group_135">
<g id="Group_136">
<path id="Vector_103" d="M60.9814 138.248C60.4278 136.359 59.9903 134.397 59.952 132.422C59.9131 130.392 60.4386 128.535 60.7474 126.558C60.7857 126.312 60.4499 126.117 60.3135 126.375C58.4569 129.866 58.9543 134.958 60.6092 138.405C60.7103 138.615 61.0455 138.467 60.9814 138.248Z" fill="#C1ADA4"/>
</g>
</g>
<g id="Group_137">
<g id="Group_138">
<path id="Vector_104" d="M66.3513 140.859C65.8899 139.662 65.3722 138.477 65.0304 137.237C64.9023 136.773 64.3619 135.293 64.642 134.941C65.7427 134.431 66.3406 134.677 66.4357 135.678C66.5082 136.105 66.5375 136.536 66.5237 136.968C66.5243 137.168 66.8331 137.22 66.8792 137.016C67.1222 135.942 66.1784 132.337 64.4864 133.671C63.7508 134.252 64.132 135.713 64.2913 136.456C64.63 138.04 65.3847 139.52 66.0204 140.998C66.1012 141.185 66.4256 141.051 66.3513 140.859Z" fill="#C1ADA4"/>
</g>
</g>
<g id="Group_139">
<g id="Group_140">
<path id="Vector_105" d="M77.7796 147.951C76.5041 145.893 75.9307 143.83 75.2784 141.536C75.2395 141.399 75.0395 141.43 75.0342 141.569C74.936 143.93 76.0881 146.342 77.5431 148.133C77.6515 148.267 77.8687 148.094 77.7796 147.951Z" fill="#C1ADA4"/>
</g>
</g>
<g id="Group_141">
<g id="Group_142">
<path id="Vector_106" d="M88.0128 151.944C89.794 151.784 92.1582 150.452 92.449 148.493C92.4742 148.325 92.2677 148.144 92.1276 148.306C91.5716 148.952 91.1814 149.688 90.517 150.249C89.7898 150.865 88.8759 151.306 87.9608 151.558C87.7549 151.616 87.7866 151.965 88.0128 151.944Z" fill="#C1ADA4"/>
</g>
</g>
<g id="Group_143">
<g id="Group_144">
<path id="Vector_107" d="M88.0574 149.944C89.2191 149.546 90.6532 148.514 90.8608 147.205C90.886 147.048 90.6879 146.875 90.5586 147.029C90.1696 147.492 89.8901 148.021 89.4537 148.45C89.0001 148.896 88.4512 149.245 87.8719 149.503C87.6229 149.614 87.7994 150.033 88.0574 149.944Z" fill="#C1ADA4"/>
</g>
</g>
<g id="Group_145">
<g id="Group_146">
<path id="Vector_108" d="M153.581 80.0203C154.118 79.7976 154.492 80.1525 154.99 80.2902C155.044 80.3052 155.192 80.2872 155.21 80.219C155.317 79.8168 154.77 79.6791 154.462 79.6498C154.071 79.6121 153.645 79.6875 153.332 79.9353C153.156 80.0747 153.513 80.049 153.581 80.0203Z" fill="#CC6144"/>
</g>
</g>
<path id="Vector 2" d="M123.584 174.836L121.881 177.819C125.379 175.873 129.248 174.614 124.711 173.374L126.119 170.707C121.052 173.526 120.583 174.406 123.584 174.836Z" fill="#393939"/>
</g>
<g id="Group_147">
<g id="Group_148">
<path id="Vector_109" d="M326.915 53.1714H263.173C257.755 53.1714 253.127 57.081 252.22 62.4256L246.714 94.8347C245.56 101.622 250.787 107.815 257.667 107.815H257.99L255.508 121.101L267.768 107.815H321.409C326.827 107.815 331.455 103.906 332.363 98.561L337.868 66.152C339.021 59.3646 333.795 53.1714 326.915 53.1714Z" fill="#EED9CE"/>
<g id="Group_149" opacity="0.16">
<g id="Group_150">
<path id="Vector_110" d="M290.338 65.3893C297.129 65.755 303.941 65.8418 310.74 65.992C314.091 66.0662 317.442 66.1398 320.794 66.2141C324.2 66.2895 327.749 66.6516 331.142 66.3374C331.493 66.305 331.646 65.7215 331.233 65.6646C328.011 65.2211 324.635 65.3989 321.385 65.3247C317.935 65.2463 314.486 65.1673 311.036 65.0889C304.14 64.932 297.235 64.7076 290.338 64.7692C289.937 64.7728 289.942 65.3678 290.338 65.3893Z" fill="black"/>
</g>
</g>
<g id="Group_151" opacity="0.16">
<g id="Group_152">
<path id="Vector_111" d="M288.502 73.6564C295.137 74.0395 301.781 74.2256 308.427 74.1963C311.703 74.1819 314.979 74.1167 318.253 74C321.443 73.8869 324.73 73.9144 327.887 73.423C328.336 73.353 328.208 72.6653 327.783 72.6545C324.522 72.5689 321.216 72.9496 317.954 73.0609C314.681 73.1728 311.405 73.2339 308.129 73.2441C301.583 73.2644 295.037 73.0747 288.502 72.6946C287.884 72.6581 287.886 73.6205 288.502 73.6564Z" fill="black"/>
</g>
</g>
<g id="Group_153" opacity="0.16">
<g id="Group_154">
<path id="Vector_112" d="M288.549 80.2519C294.545 80.7947 300.576 81.3873 306.595 81.6177C312.603 81.8475 318.659 81.4866 324.662 81.2795C325.455 81.252 325.458 80.0137 324.662 80.0442C318.653 80.277 312.612 80.7277 306.595 80.5278C300.573 80.3279 294.572 79.6833 288.549 79.4642C288.036 79.4451 288.052 80.207 288.549 80.2519Z" fill="black"/>
</g>
</g>
<g id="Group_155" opacity="0.16">
<g id="Group_156">
<path id="Vector_113" d="M258.005 86.3741C275.098 87.7938 292.342 87.8848 309.484 88.0332C313.566 88.0685 317.675 88.1517 321.753 87.974C322.423 87.9447 322.428 86.9463 321.753 86.9302C313.838 86.7464 305.905 86.9116 297.987 86.8344C288.742 86.744 279.496 86.5854 270.255 86.2772C266.17 86.1407 262.085 86.039 258.005 85.799C257.633 85.7768 257.64 86.3436 258.005 86.3741Z" fill="black"/>
</g>
</g>
<g id="Group_157" opacity="0.16">
<g id="Group_158">
<path id="Vector_114" d="M257.278 92.1949C274.18 93.6027 291.214 93.8522 308.166 94.0665C312.201 94.1174 316.267 94.2137 320.299 94.0372C320.969 94.0079 320.974 93.0095 320.299 92.9934C312.386 92.8054 304.457 92.9311 296.541 92.8132C287.489 92.678 278.438 92.4661 269.392 92.1267C265.353 91.9753 261.313 91.8574 257.278 91.6198C256.906 91.5976 256.914 92.1644 257.278 92.1949Z" fill="black"/>
</g>
</g>
<g id="Group_159" opacity="0.16">
<g id="Group_160">
<path id="Vector_115" d="M260.484 62.0996C259.685 65.0103 259.618 68.0155 259.606 71.0155C259.6 72.5379 259.601 74.0633 259.488 75.5827C259.369 77.1776 258.799 78.7102 258.719 80.2817C258.69 80.8393 259.471 81.0076 259.739 80.5584C260.372 79.4947 260.458 78.1244 260.602 76.9075C260.792 75.3102 260.817 73.7003 260.819 72.0941C260.825 68.8336 260.748 65.5882 261.673 62.4278C261.898 61.6636 260.694 61.3324 260.484 62.0996Z" fill="black"/>
</g>
</g>
<g id="Group_161" opacity="0.16">
<g id="Group_162">
<path id="Vector_116" d="M261.684 62.5103C269.373 62.6612 277.022 62.9085 284.671 63.765C284.437 63.4577 284.203 63.1505 283.969 62.8433C283.147 68.7179 282.623 74.5776 282.636 80.5133C282.638 81.6776 284.452 81.6794 284.444 80.5133C284.404 74.6824 284.652 68.8221 285.399 63.0373C285.452 62.6199 285.02 62.3444 284.671 62.309C277.055 61.5389 269.332 61.1286 261.684 61.5886C261.096 61.6239 261.086 62.4989 261.684 62.5103Z" fill="black"/>
</g>
</g>
<g id="Group_163" opacity="0.16">
<g id="Group_164">
<path id="Vector_117" d="M260.048 81.3899C263.834 80.9602 267.642 80.8052 271.45 80.9698C273.26 81.0482 275.067 81.1942 276.865 81.4097C277.914 81.5354 278.958 81.6928 280.003 81.8484C280.898 81.9819 281.568 82.2117 282.418 81.8825C282.857 81.7131 283.135 81.1182 282.718 80.7489C281.492 79.6644 279.296 79.75 277.718 79.5866C275.73 79.3807 273.734 79.2604 271.736 79.2221C267.758 79.1455 263.794 79.4196 259.856 79.9727C259.06 80.0846 259.238 81.4821 260.048 81.3899Z" fill="black"/>
</g>
</g>
<g id="Group_165" opacity="0.16">
<g id="Group_166">
<path id="Vector_118" d="M263.599 65.7439C263.309 68.8343 263.082 71.936 262.954 75.0377C262.923 75.7971 264.15 75.8019 264.136 75.0377C264.077 71.9306 264.147 68.8433 264.381 65.7439C264.419 65.2391 263.645 65.2481 263.599 65.7439Z" fill="black"/>
</g>
</g>
<g id="Group_167" opacity="0.16">
<g id="Group_168">
<path id="Vector_119" d="M263.676 75.6314C269.729 76.0121 275.853 76.3281 281.919 76.3383C282.697 76.3395 282.685 75.1837 281.919 75.1388C275.866 74.7839 269.738 74.7295 263.676 74.745C263.101 74.7462 263.11 75.5961 263.676 75.6314Z" fill="black"/>
</g>
</g>
<g id="Group_169" opacity="0.16">
<g id="Group_170">
<path id="Vector_120" d="M266.397 73.0468C266.639 72.3203 266.882 71.5944 267.124 70.868C267.328 70.2589 267.505 69.0389 267.948 68.5718C269.18 67.274 270.929 71.2525 271.305 71.8118C272.021 72.8791 273.303 73.6858 274.252 72.3497C274.884 71.4603 274.914 70.2463 275.39 69.2833C275.423 68.7766 275.697 68.4706 276.214 68.3645C276.434 68.6436 276.655 68.9221 276.875 69.2012C277.237 69.6594 277.58 70.2164 278.052 70.5727C278.521 70.9273 279.055 71.0596 279.615 70.8231C280.549 70.4284 280.569 69.1156 281.436 68.7215C283.328 67.8627 279.84 65.8545 280.049 67.9256C280.12 68.6251 279.431 69.86 278.647 69.4528C278.162 69.2012 277.711 68.3867 277.343 67.9836C276.885 67.4812 276.292 66.711 275.495 67.0236C274.921 67.2488 274.798 67.9477 274.607 68.4544C274.329 69.1958 274.029 69.9307 273.734 70.6655C273.693 71.3225 273.35 71.6537 272.705 71.6585C272.465 71.3662 272.246 71.059 272.049 70.7362C271.254 69.5749 270.195 66.9721 268.355 67.2829C267.604 67.4099 267.256 67.9585 266.957 68.6053C266.347 69.9223 266.001 71.4333 265.542 72.8102C265.36 73.3534 266.217 73.5864 266.397 73.0468Z" fill="black"/>
</g>
</g>
</g>
<g id="Group_171">
<path id="Vector_121" d="M233.67 0H191.685C188.116 0 185.068 2.57528 184.47 6.09563L180.844 27.4429C180.084 31.9137 183.527 35.9929 188.058 35.9929H188.271L184.067 42.1118L194.711 35.9929H230.044C233.612 35.9929 236.661 33.4176 237.259 29.8972L240.886 8.54994C241.645 4.07913 238.202 0 233.67 0Z" fill="#D6CED7"/>
<g id="Group_172" opacity="0.16">
<g id="Group_173">
<path id="Vector_122" d="M190.609 7.45944C198.242 7.85147 205.892 8.00349 213.533 8.21057C217.304 8.31292 221.074 8.41467 224.846 8.51702C228.683 8.62116 232.625 8.99224 236.456 8.74026C236.842 8.71513 236.827 8.19561 236.456 8.15132C232.739 7.70423 228.885 7.85146 225.143 7.74852C221.273 7.64198 217.403 7.53485 213.533 7.42831C205.894 7.21764 198.25 6.9519 190.609 6.92676C190.264 6.92556 190.268 7.44208 190.609 7.45944Z" fill="black"/>
</g>
</g>
<g id="Group_174" opacity="0.16">
<g id="Group_175">
<path id="Vector_123" d="M188.675 12.9148C196.022 13.2679 203.374 13.4941 210.729 13.5827C214.307 13.6258 217.885 13.6372 221.463 13.6168C225.224 13.5953 229.046 13.706 232.793 13.3768C233.22 13.3391 233.232 12.7214 232.793 12.7035C229.129 12.5551 225.43 12.7771 221.762 12.798C218.085 12.8196 214.407 12.8076 210.73 12.7621C203.374 12.6712 196.022 12.4425 188.676 12.087C188.143 12.0613 188.144 12.8896 188.675 12.9148Z" fill="black"/>
</g>
</g>
<g id="Group_176" opacity="0.16">
<g id="Group_177">
<path id="Vector_124" d="M187.508 17.8376C201.775 18.9437 216.16 19.0568 230.457 18.5541C230.979 18.5355 230.982 17.7209 230.457 17.7407C216.125 18.2674 201.83 17.9992 187.508 17.3187C187.173 17.3026 187.179 17.8119 187.508 17.8376Z" fill="black"/>
</g>
</g>
<g id="Group_178" opacity="0.16">
<g id="Group_179">
<path id="Vector_125" d="M186.365 23.1482C196.173 24.0113 206.163 24.5619 216.011 24.2088C216.452 24.1933 216.455 23.5289 216.011 23.5217C206.115 23.3583 196.254 23.3015 186.365 22.7694C186.119 22.7562 186.125 23.1273 186.365 23.1482Z" fill="black"/>
</g>
</g>
</g>
<g id="Group_180">
<path id="Vector_126" d="M84.2651 11.9468H26.7944C21.9099 11.9468 17.7377 15.4719 16.9189 20.2907L11.9548 49.5112C10.9152 55.6308 15.6273 61.2149 21.8303 61.2149H70.4077L78.8809 71.8999L79.2238 61.2149H79.301C84.1855 61.2149 88.3578 57.6898 89.1765 52.871L94.1406 23.6505C95.1803 17.5309 90.4681 11.9468 84.2651 11.9468Z" fill="#D6CED7"/>
<g id="Group_181" opacity="0.29">
<g id="Group_182">
<path id="Vector_127" d="M47.1894 22.7388C53.9993 23.0351 60.8188 23.1542 67.6329 23.3134C70.9906 23.3918 74.3489 23.4708 77.7066 23.5492C81.145 23.6294 84.641 23.894 88.0765 23.7252C88.359 23.7114 88.3518 23.3176 88.0765 23.2913C84.7481 22.9704 81.3455 23.0638 78.0028 22.9842C74.5464 22.9016 71.0894 22.8196 67.6329 22.737C60.82 22.5748 54.0041 22.3719 47.1894 22.3462C46.9357 22.3456 46.9381 22.728 47.1894 22.7388Z" fill="black"/>
</g>
</g>
<g id="Group_183" opacity="0.29">
<g id="Group_184">
<path id="Vector_128" d="M45.3776 30.1412C51.9271 30.5045 58.4851 30.6954 65.0448 30.6978C71.5596 30.7002 78.254 30.8277 84.7342 30.1029C85.0436 30.0682 85.0616 29.6079 84.7342 29.6067C78.1762 29.5882 71.6105 30.0975 65.0448 30.0933C58.4851 30.0891 51.9271 29.8964 45.3776 29.5313C44.9855 29.5098 44.9867 30.1197 45.3776 30.1412Z" fill="black"/>
</g>
</g>
<g id="Group_185" opacity="0.29">
<g id="Group_186">
<path id="Vector_129" d="M21.0774 36.2443C40.6184 37.6646 60.2898 37.8651 79.8661 37.1583C80.3425 37.1409 80.3449 36.3988 79.8661 36.4161C60.2533 37.1248 40.6722 36.804 21.0774 35.7709C20.7716 35.7548 20.7758 36.2222 21.0774 36.2443Z" fill="black"/>
</g>
</g>
<g id="Group_187" opacity="0.29">
<g id="Group_188">
<path id="Vector_130" d="M19.5128 43.545C32.953 44.6541 46.6034 45.3675 60.0922 44.9264C60.495 44.9132 60.4974 44.3045 60.0922 44.2991C46.5424 44.1238 33.0476 44.0077 19.5128 43.1991C19.2895 43.1865 19.2931 43.5271 19.5128 43.545Z" fill="black"/>
</g>
</g>
<g id="Group_189" opacity="0.29">
<g id="Group_190">
<path id="Vector_131" d="M23.1111 19.7567C22.7041 22.5745 22.1062 25.4732 21.9159 28.312C21.8016 30.0141 22.6114 30.8316 24.2615 31.1113C27.1092 31.594 30.0761 31.6928 32.9513 31.951C34.6745 32.1055 37.8149 32.8116 39.2447 31.3898C39.9414 30.6968 39.7642 29.6338 39.717 28.7462C39.6493 27.4837 39.5069 26.2242 39.5045 24.9588C39.5021 23.3711 39.9648 22.0703 40.3185 20.564C40.4807 19.8735 40.5136 19.1847 40.0473 18.5948C38.9215 17.1688 36.1043 17.6893 34.5518 17.6947C31.4 17.706 28.2452 17.7911 25.094 17.8498C24.1119 17.8684 24.1555 19.4584 25.094 19.3488C29.1825 18.8709 33.3901 18.5715 37.5096 18.7679C38.4158 18.811 39.3429 18.7535 39.3243 20.2897C39.3201 20.6437 39.0574 21.0713 38.9586 21.4073C38.721 22.2152 38.6085 23.0501 38.5708 23.8897C38.5307 24.7857 38.5959 25.6852 38.672 26.5776C38.751 27.5047 39.0538 28.6336 38.9287 29.5553C38.7073 31.1939 37.3887 31.3754 35.9948 31.3365C34.9785 31.3083 33.9628 31.1796 32.9501 31.0951C30.8811 30.922 28.8102 30.7651 26.7399 30.5998C25.8966 30.5327 24.2878 30.7166 23.5355 30.2824C22.9825 29.9632 22.5228 28.9091 22.4881 28.3114C22.454 27.7257 22.6904 26.8399 22.7742 26.2332C23.0645 24.1257 23.423 22.0307 23.727 19.9262C23.7875 19.5231 23.1704 19.3488 23.1111 19.7567Z" fill="black"/>
</g>
</g>
<g id="Group_191" opacity="0.29">
<g id="Group_192">
<path id="Vector_132" d="M29.0846 26.4338C29.3396 25.0557 29.4587 23.6543 29.6257 22.2636C29.5526 22.3906 29.4802 22.5175 29.4072 22.6445C29.6568 22.4786 32.0975 25.4108 32.3729 25.7235C32.4459 25.4474 32.5183 25.1719 32.5913 24.8958C31.5325 25.3264 30.4672 25.7414 29.4126 26.1822C28.8237 26.4284 29.0714 27.4028 29.6819 27.159C30.7443 26.735 31.7965 26.2852 32.8547 25.8504C33.2036 25.7073 33.3395 25.3234 33.0731 25.0228C32.3992 24.2639 31.7115 23.5195 30.9903 22.8056C30.5863 22.4055 29.9644 21.5701 29.2839 21.7174C28.622 21.8605 28.7141 22.5834 28.6621 23.1123C28.5567 24.1873 28.4292 25.2599 28.3957 26.3397C28.3825 26.7284 29.0116 26.829 29.0846 26.4338Z" fill="black"/>
</g>
</g>
</g>
</g>
<path id="Vector 2_2" d="M207.584 182.784L205.881 185.768C209.379 183.821 213.248 182.562 208.711 181.322L210.119 178.655C205.052 181.474 204.583 182.354 207.584 182.784Z" fill="#393939"/>
</g>
</g>
</svg>
