<svg width="516" height="401" viewBox="0 0 516 401" fill="none" xmlns="http://www.w3.org/2000/svg">
<g id="Group 2">
<path id="Vector 2" d="M359 398.512V400.012H359.067L359.133 400.006L359 398.512ZM321.5 376.512L322.964 376.183L322.951 376.126L322.933 376.07L321.5 376.512ZM355 371.512L354.907 370.015L354.892 370.016L354.877 370.017L355 371.512ZM372 367.512L370.815 366.592L370.76 366.663L370.714 366.739L372 367.512ZM353 363.512L353.12 362.017L353.093 362.015L353.066 362.013L353 363.512ZM311 361.012L310.721 362.486L310.8 362.501L310.881 362.507L311 361.012ZM305 355.012L303.75 354.182L303.714 354.238L303.682 354.296L305 355.012ZM342.5 353.012L342.546 351.513L342.54 351.512L342.5 353.012ZM385.5 350.512L384.531 351.657L384.536 351.661L385.5 350.512ZM351.5 345.512L351.397 347.008L351.421 347.01L351.444 347.011L351.5 345.512ZM302 336.012L303.398 336.555L303.41 336.525L303.421 336.494L302 336.012ZM362 335.012L361.953 336.511L362.002 336.513L362.051 336.511L362 335.012ZM381 329.012L381.696 327.683L381.626 327.646L381.552 327.617L381 329.012ZM324 324.512L323.863 326.006L323.91 326.01L323.958 326.011L324 324.512ZM315 316.512L314.746 315.034L314.649 315.05L314.556 315.079L315 316.512ZM365.5 314.512L365.563 313.013L365.538 313.012L365.513 313.012L365.5 314.512ZM384 302.512L382.501 302.555L382.502 302.601L382.506 302.647L384 302.512ZM391 275.012L392.346 275.675L392.37 275.625L392.391 275.574L391 275.012ZM396 243.012L394.51 242.842L394.502 242.909L394.5 242.977L396 243.012ZM425 194.512L426.163 195.459L426.191 195.425L426.216 195.39L425 194.512ZM439.5 155.512L440.998 155.591L440.998 155.582L440.999 155.573L439.5 155.512ZM428 104.512L429.344 103.845L429.305 103.767L429.257 103.694L428 104.512ZM392 72.0118L392.697 70.6838L392.645 70.6562L392.59 70.6329L392 72.0118ZM322 63.5118L321.758 62.0314L321.715 62.0385L321.673 62.048L322 63.5118ZM258 104.512L256.781 103.638L256.738 103.698L256.701 103.761L258 104.512ZM245.5 141.012L244.012 140.826L244.003 140.896L244.001 140.967L245.5 141.012ZM250 174.512L251.408 173.995L251.391 173.949L251.371 173.904L250 174.512ZM263.5 200.012L262.267 200.866L262.282 200.888L262.298 200.909L263.5 200.012ZM289.5 251.012L288.001 251.076L288.002 251.101L288.004 251.127L289.5 251.012ZM337.5 249.512L338.996 249.624L339 249.566L339 249.509L337.5 249.512ZM331.5 184.512L332.981 184.275L332.977 184.249L332.972 184.223L331.5 184.512ZM353 154.012L351.519 153.774L351.517 153.788L353 154.012ZM341 153.012L339.501 153.066L339.501 153.079L339.502 153.092L341 153.012ZM353.5 178.512L352.574 179.692L352.591 179.705L352.608 179.718L353.5 178.512ZM355.5 202.512L356.995 202.629L356.997 202.613L356.998 202.597L355.5 202.512ZM354 286.512L362.264 271.29L344.949 271.744L354 286.512ZM359.848 178.384L358.417 177.935L359.848 178.384ZM379.517 177.242L378.534 176.109L379.517 177.242ZM388.154 166.706L386.799 166.064L388.154 166.706ZM354.187 141.913L355.687 141.905L354.187 141.913ZM298.019 156.583L296.569 156.199L298.019 156.583ZM307.73 178.455L306.904 179.708L307.73 178.455ZM361.977 398.115L362.26 399.588L361.977 398.115ZM325.59 165.746L326.886 164.99L325.59 165.746ZM298.604 155.158L297.316 154.388L298.604 155.158ZM326.958 180.562L326.712 179.083L326.958 180.562ZM320.389 297.817L320.574 299.305L320.389 297.817ZM0 400.012H359V397.012H0V400.012ZM359.133 400.006C360.295 399.902 361.336 399.766 362.26 399.588L361.694 396.642C360.896 396.796 359.959 396.92 358.867 397.018L359.133 400.006ZM354.089 384.515C344.354 383.939 336.834 383.551 331.499 382.344C326.165 381.137 323.655 379.263 322.964 376.183L320.036 376.841C321.125 381.691 325.199 383.995 330.837 385.27C336.475 386.545 344.314 386.942 353.911 387.509L354.089 384.515ZM322.933 376.07C322.752 375.481 322.853 375.219 322.946 375.072C323.08 374.861 323.418 374.554 324.202 374.254C325.79 373.645 328.392 373.36 331.782 373.265C335.126 373.171 338.998 373.263 343.055 373.301C347.084 373.34 351.267 373.325 355.123 373.007L354.877 370.017C351.168 370.323 347.103 370.34 343.084 370.302C339.093 370.264 335.117 370.17 331.698 370.266C328.324 370.361 325.248 370.64 323.128 371.452C322.058 371.863 321.035 372.481 320.41 373.469C319.745 374.521 319.69 375.734 320.067 376.954L322.933 376.07ZM355.093 373.009C360.165 372.693 364.099 372.401 366.983 371.811C369.827 371.229 372.087 370.279 373.286 368.285L370.714 366.739C370.202 367.591 369.061 368.324 366.382 368.872C363.744 369.411 360.034 369.696 354.907 370.015L355.093 373.009ZM373.185 368.432C373.619 367.873 374.018 367.082 373.833 366.163C373.65 365.251 372.987 364.693 372.433 364.37C371.363 363.745 369.689 363.407 367.89 363.167C364.204 362.675 358.688 362.463 353.12 362.017L352.88 365.007C358.672 365.471 363.898 365.66 367.493 366.141C369.335 366.387 370.436 366.678 370.921 366.961C371.144 367.091 370.953 367.057 370.892 366.754C370.83 366.446 371.002 366.351 370.815 366.592L373.185 368.432ZM353.066 362.013C335.432 361.232 326.115 360.708 311.119 359.517L310.881 362.507C325.923 363.702 335.277 364.228 352.934 365.01L353.066 362.013ZM311.279 359.538C309.944 359.285 308.89 359.128 307.885 358.915C306.894 358.705 306.266 358.497 305.894 358.267C305.613 358.093 305.59 357.991 305.581 357.845C305.562 357.547 305.677 356.907 306.318 355.728L303.682 354.296C302.957 355.63 302.515 356.88 302.586 358.03C302.667 359.333 303.379 360.239 304.316 360.819C305.163 361.342 306.236 361.633 307.263 361.85C308.279 362.065 309.563 362.266 310.721 362.486L311.279 359.538ZM306.25 355.842C306.525 355.426 307.388 354.872 309.446 354.469C311.399 354.086 314.042 353.908 317.309 353.866C323.853 353.783 332.501 354.245 342.46 354.511L342.54 351.512C332.711 351.25 323.89 350.782 317.271 350.866C313.957 350.908 311.096 351.088 308.869 351.525C306.748 351.941 304.756 352.668 303.75 354.182L306.25 355.842ZM342.454 354.511C359.854 355.045 371.661 355.256 378.625 354.91C380.372 354.823 381.84 354.701 383.031 354.534C384.198 354.371 385.192 354.154 385.937 353.84C386.569 353.574 387.64 352.969 387.718 351.712C387.754 351.125 387.541 350.634 387.309 350.28C387.079 349.927 386.775 349.624 386.464 349.363L384.536 351.661C384.721 351.817 384.788 351.905 384.798 351.922C384.808 351.937 384.707 351.79 384.723 351.527C384.761 350.916 385.263 350.869 384.771 351.076C384.392 351.236 383.708 351.411 382.616 351.563C381.547 351.712 380.176 351.83 378.476 351.914C371.657 352.253 359.979 352.048 342.546 351.513L342.454 354.511ZM386.469 349.367C383.907 347.198 379.872 346.096 374.335 345.4C368.737 344.695 361.264 344.374 351.556 344.013L351.444 347.011C361.192 347.373 368.521 347.691 373.96 348.376C379.461 349.068 382.698 350.105 384.531 351.657L386.469 349.367ZM351.603 344.015C336.59 342.98 323.621 342.401 314.7 341.188C310.214 340.578 306.955 339.83 305.017 338.881C304.05 338.407 303.59 337.968 303.399 337.639C303.257 337.394 303.19 337.092 303.398 336.555L300.602 335.469C300.115 336.723 300.138 337.996 300.804 339.145C301.423 340.21 302.489 340.984 303.697 341.575C306.109 342.756 309.795 343.549 314.296 344.161C323.349 345.392 336.521 345.982 351.397 347.008L351.603 344.015ZM303.421 336.494C303.34 336.73 303.205 336.808 303.254 336.773C303.301 336.741 303.435 336.664 303.714 336.568C304.271 336.377 305.15 336.194 306.412 336.041C308.919 335.735 312.634 335.577 317.612 335.542C327.55 335.472 342.29 335.89 361.953 336.511L362.047 333.513C342.404 332.892 327.599 332.471 317.59 332.542C312.594 332.578 308.736 332.736 306.049 333.063C304.715 333.225 303.592 333.438 302.74 333.731C302.313 333.877 301.892 334.064 301.53 334.318C301.17 334.571 300.773 334.959 300.579 335.53L303.421 336.494ZM362.051 336.511C371.232 336.197 378.525 335.931 382.31 335.088C383.258 334.877 384.144 334.599 384.809 334.184C385.49 333.76 386.276 332.948 386.097 331.725C385.956 330.756 385.237 330.019 384.597 329.497C383.888 328.919 382.91 328.319 381.696 327.683L380.304 330.341C381.446 330.938 382.22 331.43 382.702 331.823C383.252 332.271 383.162 332.382 383.129 332.158C383.059 331.678 383.433 331.507 383.223 331.638C382.998 331.778 382.515 331.969 381.658 332.16C378.22 332.925 371.301 333.193 361.949 333.513L362.051 336.511ZM381.552 327.617C376.679 325.688 369.384 324.762 359.891 324.197C350.356 323.629 338.374 323.418 324.042 323.012L323.958 326.011C338.344 326.419 350.239 326.628 359.713 327.192C369.229 327.758 376.075 328.676 380.448 330.407L381.552 327.617ZM324.137 323.018C320.387 322.675 316.438 322.456 313.093 322.214C309.668 321.966 306.966 321.698 305.475 321.286C305.114 321.187 304.899 321.098 304.789 321.037C304.649 320.96 304.829 321.014 304.95 321.3C305.119 321.699 304.976 322.035 304.917 322.128C304.891 322.168 304.941 322.079 305.231 321.878C305.795 321.489 306.846 320.962 308.565 320.289C310.26 319.625 312.52 318.85 315.444 317.945L314.556 315.079C311.597 315.996 309.26 316.795 307.471 317.495C305.707 318.186 304.388 318.815 303.526 319.41C303.104 319.702 302.676 320.062 302.388 320.515C302.066 321.02 301.874 321.73 302.188 322.471C302.454 323.098 302.972 323.461 303.341 323.665C303.741 323.885 304.207 324.048 304.677 324.178C306.511 324.685 309.538 324.965 312.877 325.206C316.296 325.454 320.147 325.665 323.863 326.006L324.137 323.018ZM315.254 317.99C327.99 315.798 341.052 315.807 365.487 316.012L365.513 313.012C341.154 312.808 327.8 312.787 314.746 315.034L315.254 317.99ZM365.437 316.011C369.191 316.169 372.358 316.148 374.978 315.847C377.589 315.547 379.772 314.958 381.478 313.9C385.109 311.647 385.975 307.704 385.494 302.377L382.506 302.647C382.959 307.659 382.024 310.031 379.896 311.351C378.723 312.079 377.037 312.591 374.636 312.866C372.245 313.141 369.259 313.169 365.563 313.013L365.437 316.011ZM385.499 302.469C385.355 297.46 385.718 293.534 386.77 289.508C387.829 285.46 389.6 281.25 392.346 275.675L389.654 274.349C386.88 279.982 385.003 284.407 383.868 288.749C382.727 293.114 382.35 297.334 382.501 302.555L385.499 302.469ZM392.391 275.574C397.33 263.351 397.205 255.849 397.5 243.046L394.5 242.977C394.205 255.813 394.318 262.797 389.609 274.45L392.391 275.574ZM397.49 243.182C398.849 231.288 405.923 220.315 426.163 195.459L423.837 193.565C403.721 218.267 395.986 229.922 394.51 242.842L397.49 243.182ZM426.216 195.39C431.675 187.832 435.182 181.813 437.417 175.686C439.655 169.549 440.584 163.388 440.998 155.591L438.002 155.432C437.597 163.072 436.696 168.906 434.599 174.658C432.498 180.419 429.165 186.183 423.784 193.634L426.216 195.39ZM440.999 155.573C441.404 145.628 441.022 137.76 439.254 129.816C437.487 121.88 434.354 113.945 429.344 103.845L426.656 105.178C431.614 115.172 434.633 122.864 436.326 130.468C438.017 138.065 438.401 145.65 438.001 155.451L440.999 155.573ZM429.257 103.694C425.116 97.3268 421.959 92.1634 416.832 87.0631C411.695 81.9526 404.636 76.9524 392.697 70.6838L391.303 73.3399C403.104 79.5364 409.874 84.3732 414.716 89.19C419.569 94.0169 422.541 98.8709 426.743 105.33L429.257 103.694ZM392.59 70.6329C380.021 65.2513 369.85 61.8469 359.02 60.4256C348.188 59.004 336.786 59.5777 321.758 62.0314L322.242 64.9922C337.108 62.5649 348.193 62.0304 358.629 63.4001C369.068 64.7699 378.95 68.0561 391.41 73.3908L392.59 70.6329ZM321.673 62.048C306.656 65.4064 295.274 68.9878 285.207 75.1769C275.126 81.3745 266.473 90.1193 256.781 103.638L259.219 105.386C268.775 92.0572 277.154 83.6493 286.778 77.7325C296.416 71.8071 307.409 68.3121 322.327 64.9757L321.673 62.048ZM256.701 103.761C253.328 109.598 250.704 114.335 248.652 119.891C246.597 125.456 245.138 131.785 244.012 140.826L246.988 141.197C248.096 132.303 249.515 126.215 251.467 120.93C253.421 115.637 255.929 111.093 259.299 105.262L256.701 103.761ZM244.001 140.967C243.539 156.317 243.93 164.52 248.629 175.12L251.371 173.904C246.959 163.951 246.54 156.32 246.999 141.057L244.001 140.967ZM248.592 175.029C252.924 186.836 256.201 192.11 262.267 200.866L264.733 199.158C258.762 190.538 255.627 185.494 251.408 173.995L248.592 175.029ZM262.298 200.909C276.905 220.471 287.127 230.576 288.001 251.076L290.999 250.948C290.075 229.292 279.031 218.304 264.702 199.114L262.298 200.909ZM288.004 251.127C288.884 262.56 289.343 272.372 291.45 280.076C293.594 287.914 297.499 293.793 305.334 297.223L306.537 294.475C299.741 291.5 296.316 286.495 294.343 279.284C292.334 271.938 291.891 262.535 290.996 250.897L288.004 251.127ZM320.574 299.305C326.108 298.616 330.065 296.659 332.81 293.568C335.527 290.509 336.907 286.506 337.638 282.013C338.369 277.524 338.476 272.379 338.521 266.931C338.566 261.446 338.547 255.623 338.996 249.624L336.004 249.4C335.546 255.523 335.565 261.471 335.521 266.906C335.476 272.379 335.366 277.302 334.677 281.531C333.99 285.755 332.748 289.119 330.567 291.576C328.414 294 325.195 295.706 320.203 296.328L320.574 299.305ZM339 249.509C338.946 224.004 337.039 209.687 332.981 184.275L330.019 184.748C334.065 210.091 335.946 224.234 336 249.515L339 249.509ZM332.972 184.223C331.4 176.205 329.861 170.091 326.886 164.99L324.294 166.502C326.989 171.121 328.456 176.782 330.028 184.8L332.972 184.223ZM297.316 154.388C296.989 154.935 296.744 155.541 296.569 156.199L299.469 156.967C299.582 156.543 299.727 156.203 299.891 155.928L297.316 154.388ZM306.904 179.708C312.658 183.502 319.207 183.373 327.204 182.042L326.712 179.083C318.836 180.393 313.296 180.33 308.556 177.203L306.904 179.708ZM343.152 176.634C350.237 171.945 352.799 165.388 354.483 154.236L351.517 153.788C349.87 164.692 347.494 170.163 341.496 174.133L343.152 176.634ZM354.481 154.25C355.284 149.251 355.704 145.212 355.687 141.905L352.687 141.92C352.702 144.987 352.311 148.839 351.519 153.774L354.481 154.25ZM339.27 141.971C339.247 145.13 339.348 148.831 339.501 153.066L342.499 152.958C342.346 148.728 342.247 145.082 342.27 141.993L339.27 141.971ZM339.502 153.092C339.887 160.262 340.961 165.258 343.1 169.327C345.243 173.404 348.379 176.401 352.574 179.692L354.426 177.332C350.336 174.123 347.601 171.443 345.755 167.931C343.905 164.412 342.872 159.908 342.498 152.931L339.502 153.092ZM352.608 179.718C357.535 183.36 361.891 185.452 366.453 185.303C371.017 185.154 375.427 182.775 380.5 178.375L378.534 176.109C373.643 180.351 369.887 182.189 366.355 182.304C362.821 182.42 359.151 180.825 354.392 177.306L352.608 179.718ZM389.51 167.348C389.588 167.184 389.662 167.021 389.733 166.859L386.985 165.655C386.926 165.789 386.864 165.925 386.799 166.064L389.51 167.348ZM358.417 177.935C355.496 187.267 354.507 193.546 354.002 202.427L356.998 202.597C357.489 193.937 358.44 187.904 361.28 178.832L358.417 177.935ZM354.005 202.395C351.762 231.131 351.584 248.607 352.146 273.049L355.146 272.98C354.585 248.621 354.762 231.247 356.995 202.629L354.005 202.395ZM366.506 160.995C363.246 165.677 360.103 172.548 358.417 177.935L361.28 178.832C362.894 173.675 365.915 167.093 368.968 162.709L366.506 160.995ZM380.5 178.375C384.012 175.328 387.422 171.755 389.51 167.348L386.799 166.064C384.973 169.918 381.927 173.166 378.534 176.109L380.5 178.375ZM355.687 141.905C355.671 138.858 354.73 136.427 353.182 134.745C351.638 133.067 349.565 132.219 347.48 132.23C343.195 132.252 339.316 135.804 339.27 141.971L342.27 141.993C342.306 137.203 345.107 135.242 347.496 135.23C348.748 135.223 350.01 135.728 350.974 136.776C351.935 137.82 352.674 139.49 352.687 141.92L355.687 141.905ZM296.569 156.199C294.212 165.099 299.525 174.841 306.904 179.708L308.556 177.203C301.93 172.833 297.531 164.285 299.469 156.967L296.569 156.199ZM362.26 399.588C364.618 399.136 366.273 397.89 366.704 395.904C367.094 394.107 366.344 392.21 365.255 390.652C363.057 387.507 358.649 384.545 354.011 384.512L353.989 387.512C357.473 387.536 361.042 389.86 362.796 392.37C363.683 393.639 363.904 394.662 363.772 395.268C363.682 395.686 363.325 396.329 361.694 396.642L362.26 399.588ZM326.886 164.99C324.007 160.055 318.42 154.892 312.797 152.13C309.983 150.748 307.017 149.896 304.286 150.093C301.471 150.297 298.972 151.62 297.316 154.388L299.891 155.928C301.008 154.061 302.589 153.224 304.503 153.085C306.501 152.941 308.915 153.566 311.474 154.823C316.598 157.34 321.73 162.106 324.294 166.502L326.886 164.99ZM327.204 182.042C332.611 181.143 338.329 179.827 343.152 176.634L341.496 174.133C337.233 176.955 332.053 178.194 326.712 179.083L327.204 182.042ZM389.733 166.859C391.041 163.872 390.701 161.163 389.103 159.076C387.579 157.086 385.069 155.868 382.393 155.341C377.089 154.296 370.126 155.797 366.506 160.995L368.968 162.709C371.703 158.781 377.281 157.392 381.814 158.285C384.057 158.726 385.79 159.684 386.721 160.9C387.579 162.02 387.907 163.549 386.985 165.655L389.733 166.859ZM305.334 297.223C310.118 299.317 315.447 299.945 320.574 299.305L320.203 296.328C315.555 296.908 310.778 296.331 306.537 294.475L305.334 297.223Z" fill="black"/>
<g id="Group 1">
<rect id="Rectangle 2" x="181.004" y="130.012" width="40" height="4" rx="2" transform="rotate(14.5345 181.004 130.012)" fill="#161616"/>
<rect id="Rectangle 3" x="227.393" y="45.2026" width="40" height="4" rx="2" transform="rotate(45.9463 227.393 45.2026)" fill="#161616"/>
<rect id="Rectangle 4" x="310.184" width="40" height="4" rx="2" transform="rotate(77.3582 310.184 0)" fill="#161616"/>
<rect id="Rectangle 5" x="406.818" y="7.53278" width="40" height="4" rx="2" transform="rotate(108.77 406.818 7.53278)" fill="#161616"/>
<rect id="Rectangle 6" x="449.681" y="89.1718" width="40" height="4" rx="2" transform="rotate(-38.0091 449.681 89.1718)" fill="#161616"/>
<rect id="Rectangle 7" x="475" y="156.804" width="40" height="4" rx="2" transform="rotate(-11.2327 475 156.804)" fill="#161616"/>
</g>
</g>
</svg>
