<svg width="639" height="594" viewBox="0 0 639 594" fill="none" xmlns="http://www.w3.org/2000/svg">
<g id="Group 10">
<g id="Group 9">
<g id="Group">
<path id="Vector" opacity="0.87" d="M604.907 570.357C623.735 570.357 638.999 569.272 638.999 567.932C638.999 566.593 623.735 565.508 604.907 565.508C586.078 565.508 570.814 566.593 570.814 567.932C570.814 569.272 586.078 570.357 604.907 570.357Z" fill="#515159"/>
<g id="Group_2">
<path id="Vector_2" d="M609.234 476.195C609.234 476.195 580.044 457.637 598.794 430.661C617.544 403.685 612.856 394.31 606.294 386.715C622.23 403.685 618.738 423.02 609.234 435.285C599.73 447.549 598.224 464.24 609.234 476.195Z" fill="#AFAFAF"/>
<g id="Group_3">
<path id="Vector_3" d="M633.05 499.223H576.764L582.258 565.908H627.556L633.05 499.223Z" fill="#FEFEFE"/>
<path id="Vector_4" d="M638.999 495.812H570.814V503.632H638.999V495.812Z" fill="#8B8B8C"/>
<path id="Vector_5" d="M625.61 488.778H584.205C580.095 488.778 576.764 491.896 576.764 495.743V495.813H633.052V495.743C633.05 491.896 629.719 488.778 625.61 488.778Z" fill="#5A5A63"/>
<path id="Vector_6" d="M629.92 537.215L631.251 521.061H578.562L579.893 537.215H629.92Z" fill="#EDB62B"/>
</g>
<path id="Vector_7" d="M633.05 495.812V495.741C633.05 491.894 629.719 488.777 625.608 488.777H605.103C609.213 488.777 612.544 491.894 612.544 495.741V495.812H618.492V503.632H612.18L607.05 565.907H627.556L632.687 503.632H638.999V495.812H633.05Z" fill="#AFAFAF"/>
</g>
</g>
<g id="Group_4">
<path id="Vector_8" d="M339.866 81.1316C339.866 81.1316 351.662 46.5113 334.428 36.4584C323.472 31.1898 317.486 37.7533 317.486 37.7533C317.486 37.7533 312.335 13.2748 276.837 21.3618C253.843 26.5995 246.591 15.5074 246.591 15.5074C246.591 15.5074 246.376 46.1921 262.211 55.3165C273.676 64.517 269.279 89.3873 269.279 89.3873L339.866 81.1316Z" fill="#2F2F35"/>
<path id="Vector_9" opacity="0.87" d="M444.44 533.548C444.44 533.548 508.348 535.345 526.183 550.752C544.941 566.957 564.619 592.26 483.872 591.772C403.125 591.285 331.542 570.486 263.818 577.087C196.094 583.687 140.519 595.068 124.33 592.543C108.14 590.019 223.536 538.285 223.536 538.285L437.779 545.643L444.44 533.548Z" fill="#515159"/>
<path id="Vector_10" d="M384.665 399.02L304.1 391.446L223.535 399.02C223.535 399.02 218.75 434.645 203.192 453.65C304.1 487.565 304.1 487.565 304.1 487.565C304.1 487.565 304.1 487.565 405.008 453.65C389.452 434.645 384.665 399.02 384.665 399.02Z" fill="#A87D1D"/>
<path id="Vector_11" d="M300.919 486.495C304.097 487.563 304.101 487.565 304.101 487.565C304.101 487.565 304.105 487.563 307.279 486.497C325.845 446.526 321.403 401.683 320.302 392.97L304.103 391.446L283.368 393.396C282.954 402.974 282.262 446.78 300.919 486.495Z" fill="#A87D1D"/>
<path id="Vector_12" d="M223.078 401.927C223.082 401.929 307.854 436.92 389.725 421.712C386.047 409.274 384.667 399.02 384.667 399.02L304.102 391.446L239.384 397.531L223.078 401.927Z" fill="#895436"/>
<path id="Vector_13" d="M262.209 55.3144C273.674 64.5149 269.277 89.3852 269.277 89.3852L284.275 87.6314C299.678 74.8036 317.065 58.5626 314.54 52.4452C310.116 41.7231 297.337 31.0208 273.773 29.7966C250.21 28.5724 246.59 15.5053 246.59 15.5053C246.59 15.5053 246.374 46.19 262.209 55.3144Z" fill="#515159"/>
<path id="Vector_14" d="M301.176 142.191L234.572 164.914L223.536 399.022C223.536 399.022 247.08 409.351 304.101 409.351C304.101 166.024 304.101 145.827 304.101 145.827L301.176 142.191Z" fill="#353535"/>
<path id="Vector_15" d="M307.025 142.191L373.629 164.914L384.666 399.022C384.666 399.022 361.121 409.351 304.101 409.351C304.101 166.024 304.101 145.827 304.101 145.827L307.025 142.191Z" fill="#353535"/>
<path id="Vector_16" d="M234.572 164.914L234.264 165.017C214.809 171.519 199.263 185.513 191.563 203.453L120.07 365.39L180.864 372.169L232.328 254.13L234.572 164.914Z" fill="#F7CAFB"/>
<path id="Vector_17" d="M373.629 164.914L373.939 165.017C393.394 171.519 408.941 185.513 416.64 203.453L488.133 365.39L427.34 372.169L375.875 254.13L373.629 164.914Z" fill="#F7CAFB"/>
<path id="Vector_18" d="M444.401 266.332L416.64 203.451C408.941 185.511 393.394 171.519 373.939 165.015L373.629 164.912L375.875 254.126L390.454 287.566C409.917 272.311 429.444 267.358 444.401 266.332Z" fill="#353535"/>
<path id="Vector_19" d="M163.8 266.332L191.562 203.451C199.261 185.511 214.807 171.519 234.263 165.015L234.573 164.912L232.327 254.126L217.747 287.566C198.284 272.311 178.757 267.358 163.8 266.332Z" fill="#393232"/>
<path id="Vector_20" d="M377.981 257.211C377.981 257.211 376.177 254.846 373.631 250.415L375.877 254.126C375.877 254.126 350.536 385.752 282.794 408.826C289.308 409.153 296.387 409.347 304.102 409.347C361.123 409.347 384.667 399.018 384.667 399.018L377.981 257.211Z" fill="#353535"/>
<path id="Vector_21" opacity="0.52" d="M203.193 239.618C220.373 194.518 221.328 194.863 258.853 186.6C296.376 178.337 288.998 146 288.998 146L254.014 157.934L248.603 159.78L234.572 164.566L234.262 164.669C214.807 171.171 199.26 185.165 191.561 203.104L123.031 358.33C151.972 338.393 188.559 278.028 203.193 239.618Z" fill="#3E2640"/>
<path id="Vector_22" opacity="0.28" d="M405.008 239.965C387.828 194.866 386.873 195.21 349.348 186.947C311.825 178.685 319.203 146.348 319.203 146.348L354.187 158.281L359.598 160.127L373.627 164.914L373.937 165.017C393.392 171.519 408.938 185.513 416.638 203.451L485.168 358.678C456.229 338.741 419.642 278.376 405.008 239.965Z" fill="#353535"/>
<path id="Vector_23" d="M304.281 171.073H303.921C294.076 171.073 286.093 163.604 286.093 154.389V114.556H322.106V154.389C322.108 163.604 314.126 171.073 304.281 171.073Z" fill="#F7CAFB"/>
<path id="Vector_24" d="M321.82 145.279C321.922 145.279 322.008 145.268 322.108 145.267V114.556H305.297L286.093 121.051C286.093 121.051 293.24 145.279 321.82 145.279Z" fill="#ED99F4"/>
<path id="Vector_25" d="M345.991 90.6275C345.991 96.6052 340.815 101.449 334.427 101.449C328.041 101.449 322.863 96.6052 322.863 90.6275C322.863 84.6498 328.041 79.8056 334.427 79.8056C340.813 79.8056 345.991 84.6498 345.991 90.6275Z" fill="#EF92F7"/>
<path id="Vector_26" d="M336.678 101.237C338.348 94.9639 339.329 86.9386 339.864 81.1314C338.236 80.3134 336.402 79.8056 334.426 79.8056C328.04 79.8056 322.862 84.6516 322.862 90.6275C322.862 96.6052 328.04 101.449 334.426 101.449C335.199 101.449 335.949 101.371 336.678 101.237Z" fill="#F4B3F9"/>
<path id="Vector_27" d="M262.209 90.6275C262.209 96.6052 267.388 101.449 273.773 101.449C280.161 101.449 285.337 96.6052 285.337 90.6275C285.337 84.6498 280.161 79.8056 273.773 79.8056C267.388 79.8056 262.209 84.6498 262.209 90.6275Z" fill="#F08BF9"/>
<path id="Vector_28" d="M271.523 101.237C269.851 94.9639 268.872 86.9386 268.337 81.1314C269.965 80.3134 271.799 79.8056 273.775 79.8056C280.163 79.8056 285.339 84.6516 285.339 90.6275C285.339 96.6052 280.161 101.449 273.775 101.449C273.004 101.449 272.252 101.371 271.523 101.237Z" fill="#F4A7FB"/>
<path id="Vector_29" d="M324.453 52.7771H304.101H283.748L273.675 73.3744L275.369 93.7596C276.274 104.638 283.783 123.421 294.349 128.037C297.488 129.408 300.814 130.322 304.101 130.322C307.388 130.322 310.713 129.408 313.853 128.037C324.418 123.421 331.928 104.64 332.833 93.7596L334.527 73.3744L324.453 52.7771Z" fill="#F9A8FF"/>
<path id="Vector_30" d="M314.541 78.634C314.541 78.634 321.37 80.4259 329.097 78.634" stroke="#2F2F35" stroke-width="1.3362" stroke-miterlimit="10" stroke-linecap="round"/>
<path id="Vector_31" d="M312.335 66.9197C312.335 66.9197 322.31 65.3673 328.306 68.601" stroke="#2F2F35" stroke-width="2.6723" stroke-miterlimit="10" stroke-linecap="round"/>
<path id="Vector_32" d="M293.661 78.634C293.661 78.634 286.832 80.4259 279.103 78.634" stroke="#2F2F35" stroke-width="1.3362" stroke-miterlimit="10" stroke-linecap="round"/>
<path id="Vector_33" d="M295.866 66.9197C295.866 66.9197 285.892 65.3673 279.896 68.601" stroke="#2F2F35" stroke-width="2.6723" stroke-miterlimit="10" stroke-linecap="round"/>
<path id="Vector_34" opacity="0.52" d="M287.882 96.3966C286.552 75.7993 283.748 52.7771 283.748 52.7771L273.674 73.3744L274.213 79.8455C274.064 79.84 273.924 79.8038 273.775 79.8038C267.39 79.8038 262.211 84.6498 262.211 90.6257C262.211 96.6034 267.39 101.448 273.775 101.448C274.787 101.448 275.752 101.288 276.686 101.059C279.409 111.588 285.897 124.345 294.351 128.037C297.49 129.408 300.816 130.322 304.102 130.322C304.102 130.322 289.211 116.996 287.882 96.3966Z" fill="#F9D9FC"/>
<g id="Group_5">
<path id="Vector_35" d="M373.629 490.597L143.461 425.245C112.899 416.567 80.7581 433.405 72.6807 462.319L72.3765 463.411C64.0548 493.204 84.698 523.301 117.11 528.602C202.212 542.523 356.46 566.198 437.642 569.093L471.862 590.443C477.029 593.668 483.889 593.136 488.42 589.161L488.596 589.007C493.98 584.284 494.255 576.371 489.211 571.329L483.874 565.995C483.874 565.995 479.116 544.306 455.62 535.01C432.124 525.715 429.917 502.992 424.4 490.597C418.878 478.203 383.563 472.008 373.629 490.597Z" fill="#E494EB"/>
<path id="Vector_36" d="M72.6812 462.319C80.7586 433.403 112.902 416.567 143.461 425.245L221.517 447.408C209.759 461.135 194.251 489 193.782 540.713C165.285 536.379 138.919 532.169 117.109 528.602C84.6966 523.301 64.0534 493.202 72.375 463.411L72.6812 462.319Z" fill="#EDB62B"/>
<path id="Vector_37" opacity="0.67" d="M145.289 507.751C145.289 516.534 143.037 524.822 139.068 532.157C131.361 530.92 123.987 529.726 117.111 528.602C84.6985 523.301 64.0553 493.202 72.3769 463.411L72.6812 462.319C73.406 459.722 74.3323 457.227 75.4273 454.835C79.3148 454.062 83.3439 453.648 87.4775 453.648C119.405 453.65 145.289 477.871 145.289 507.751Z" fill="#A87D1D"/>
<path id="Vector_38" d="M384.666 520.549C384.666 520.549 381.356 538.601 349.351 532.157" stroke="#7B3C38" stroke-width="1.139" stroke-miterlimit="10"/>
<path id="Vector_39" opacity="0.28" d="M405.009 512.287C405.009 512.287 355.97 510.221 252.229 492.903C168.182 478.872 143.527 438.612 137.194 423.831C139.285 424.19 141.376 424.652 143.459 425.243L373.627 490.596C383.561 472.004 418.877 478.201 424.394 490.596C429.911 502.99 432.119 525.711 455.615 535.008C479.11 544.303 483.868 565.994 483.868 565.994C483.868 565.994 459.709 551.533 444.436 548.436C429.163 545.338 405.009 512.287 405.009 512.287Z" fill="#4C2A29"/>
</g>
<path id="Vector_40" d="M415.628 567.932C415.628 567.932 457.893 605.777 493.926 590.204C499.922 587.614 501.8 580.448 497.885 575.473C467.533 536.896 429.264 494.869 414.677 479.074C411.025 475.12 405.245 473.522 399.882 474.98L358.373 486.265L415.628 567.932Z" fill="#2F2F35"/>
<path id="Vector_41" d="M358.374 486.267L318.616 474.977L348.732 561.706L415.629 567.932L358.374 486.267Z" fill="#A5A5A5"/>
<path id="Vector_42" d="M234.572 490.597L464.742 425.245C495.303 416.567 527.444 433.405 535.522 462.319L535.826 463.411C544.148 493.204 523.505 523.301 491.092 528.602C405.99 542.523 251.742 566.198 170.561 569.093L136.34 590.443C131.174 593.668 124.313 593.136 119.783 589.161L119.606 589.007C114.223 584.284 113.947 576.371 118.992 571.329L124.329 565.995C124.329 565.995 129.087 544.306 152.583 535.01C176.078 525.715 178.286 502.992 183.803 490.597C189.322 478.203 224.638 472.008 234.572 490.597Z" fill="#F7CAFB"/>
<path id="Vector_43" d="M535.521 462.319C527.443 433.403 495.3 416.567 464.74 425.245L386.685 447.408C398.443 461.135 413.95 489 414.417 540.713C442.915 536.379 469.281 532.169 491.091 528.602C523.503 523.301 544.146 493.202 535.825 463.411L535.521 462.319Z" fill="#EDB62B"/>
<path id="Vector_44" opacity="0.67" d="M462.913 507.751C462.913 516.534 465.164 524.822 469.133 532.157C476.841 530.92 484.215 529.726 491.091 528.602C523.503 523.301 544.146 493.202 535.825 463.411L535.52 462.319C534.795 459.722 533.869 457.227 532.774 454.835C528.887 454.062 524.858 453.648 520.724 453.648C488.796 453.65 462.913 477.871 462.913 507.751Z" fill="#A87D1D"/>
<path id="Vector_45" opacity="0.28" d="M203.193 512.287C203.193 512.287 252.231 510.221 355.972 492.903C440.02 478.872 464.674 438.612 471.008 423.831C468.917 424.19 466.826 424.652 464.742 425.243L234.573 490.597C224.64 472.006 189.323 478.203 183.806 490.597C178.288 502.992 176.081 525.713 152.585 535.01C129.089 544.304 124.332 565.995 124.332 565.995C124.332 565.995 148.49 551.535 163.763 548.438C179.034 545.338 203.193 512.287 203.193 512.287Z" fill="#4C2A29"/>
<path id="Vector_46" opacity="0.57" d="M152.583 535.01L118.079 529.023C86.851 524.358 65.7021 496.731 71.0295 467.559L71.2388 466.416C77.0469 434.611 111.543 414.938 144.41 424.688L209.559 444.013" stroke="white" stroke-width="1.1139" stroke-miterlimit="10"/>
<path id="Vector_47" d="M292.267 96.0593C291.027 96.0593 290.298 97.405 291.06 98.3209C294.515 102.472 299.089 105.01 304.118 105.01C309.147 105.01 313.72 102.472 317.176 98.3209C317.937 97.405 317.209 96.0593 315.968 96.0593H304.118H292.267Z" fill="white"/>
<path id="Vector_48" d="M307.517 78.1788V89.3834C307.517 89.3834 304.763 87.927 300.932 89.3834" stroke="#2F2F35" stroke-width="0.8212" stroke-miterlimit="10" stroke-linecap="round"/>
<path id="Vector_49" d="M317.486 37.7512H314.541V55.2817H317.486V37.7512Z" fill="#F7CAFB"/>
<g id="Group_6">
<path id="Vector_50" d="M488.133 365.388L488.255 365.704C495.154 383.579 486.891 403.476 468.903 412.301L345.991 472.597L345.385 471.128C334.555 444.948 345.883 415.296 371.991 401.472L427.341 372.168L488.133 365.388Z" fill="#F7CAFB"/>
<path id="Vector_51" opacity="0.28" d="M462.18 402.321C462.18 406.567 463.313 410.56 465.294 414.07L468.902 412.3C483.088 405.341 491.189 391.49 490.61 377.18C490.113 377.155 489.623 377.11 489.119 377.11C474.24 377.11 462.18 388.398 462.18 402.321Z" fill="#E63DF5"/>
<path id="Vector_52" d="M427.339 372.168L462.18 353.678" stroke="#D985E0" stroke-width="1.3362" stroke-miterlimit="10" stroke-linecap="round"/>
</g>
<g id="Group_7">
<path id="Vector_53" d="M262.312 471.914L139.879 411.853C122.121 403.141 113.987 383.533 120.755 365.928L181.072 372.654L236.338 401.914C262.234 415.625 273.441 445.011 262.716 470.937L262.312 471.914Z" fill="#F7CAFB" stroke="#F7CAFB"/>
<path id="Vector_54" opacity="0.28" d="M145.881 402.321C145.881 406.311 144.859 410.074 143.059 413.411L139.879 411.851C126.013 405.049 118.053 391.596 118.436 377.653C118.442 377.652 118.448 377.652 118.455 377.651C118.79 377.63 119.108 377.61 119.442 377.61C134.075 377.61 145.881 388.705 145.881 402.321Z" fill="#E63DF5" stroke="#F7CAFB"/>
<path id="Vector_55" d="M181.222 372.168L146.381 353.678" stroke="#F7CAFB" stroke-width="1.3362" stroke-miterlimit="10" stroke-linecap="round"/>
</g>
<path id="Vector_56" d="M248.93 465.905C248.93 465.905 255.134 434.05 234.933 423.831" stroke="#4C2A29" stroke-width="1.3362" stroke-miterlimit="10" stroke-linecap="round"/>
<path id="Vector_57" d="M359.271 465.905C359.271 465.905 353.067 434.05 373.269 423.831" stroke="#4C2A29" stroke-width="1.3362" stroke-miterlimit="10" stroke-linecap="round"/>
<path id="Vector_58" d="M192.573 567.932C192.573 567.932 150.308 605.777 114.275 590.204C108.281 587.614 106.401 580.448 110.316 575.473C140.668 536.896 178.935 494.869 193.524 479.074C197.175 475.12 202.956 473.522 208.319 474.98L249.828 486.265L192.573 567.932Z" fill="#2F2F35"/>
<path id="Vector_59" d="M249.83 486.267L289.585 474.977L259.469 561.706L192.573 567.932L249.83 486.267Z" fill="#ECECEC"/>
<path id="Vector_60" opacity="0.28" d="M233.295 509.849C245.087 508.672 260.405 506.947 279.353 504.445L289.585 474.979L249.83 486.267L233.295 509.849Z" fill="#4C2A29"/>
<path id="Vector_61" d="M205.239 541.593L182.176 574.489C180.74 576.536 178.174 577.632 175.579 577.302L175.426 577.282C170.43 576.647 167.887 571.32 170.715 567.414L194.303 534.825C195.813 532.739 198.54 531.743 201.158 532.318L201.294 532.347C205.685 533.312 207.712 538.066 205.239 541.593Z" fill="#FFF6E7"/>
<g id="Group_8">
<g id="Group_9">
<path id="Vector_62" d="M300.932 351.469H159.786L194.586 467.47H300.932H407.277L442.077 351.469H300.932Z" fill="#AFAFAF"/>
<path id="Vector_63" d="M407.277 467.47H194.586V484.366H407.277V467.47Z" fill="#8B8B8C"/>
<path id="Vector_64" d="M442.077 343.774H159.786V351.469H442.077V343.774Z" fill="#5A5A63"/>
<path id="Vector_65" d="M227.667 472.322H206.367V479.114H227.667V472.322Z" fill="#5A5A63"/>
<path id="Vector_66" d="M258.409 472.322H237.109V479.114H258.409V472.322Z" fill="#5A5A63"/>
<path id="Vector_67" d="M407.278 475.918H277.833" stroke="#0F1201" stroke-miterlimit="10"/>
<path id="Vector_68" opacity="0.54" d="M159.786 351.469L194.586 467.472H270.339C315.319 418.667 342.648 351.469 342.648 351.469L342.555 343.774H159.786V351.469Z" fill="white"/>
</g>
<path id="Vector_69" opacity="0.57" d="M159.786 351.469H442.077" stroke="#0F1201" stroke-miterlimit="10"/>
</g>
</g>
</g>
<g id="Group_10">
<path id="Vector_70" d="M112.95 10.2171C108.359 9.1227 103.509 9.37495 98.9174 10.3279C98.8865 10.3343 98.8181 10.3521 98.7163 10.38C94.6896 11.471 91.0162 13.6045 88.0733 16.5616C87.9996 16.6357 87.9494 16.6868 87.9285 16.7105C84.8257 20.2265 82.2037 24.3155 80.8792 28.8444C76.9375 42.327 87.1913 56.6877 100.42 59.7244C104.131 60.576 106.872 62.8656 109.467 65.6386C110.249 66.4736 117.363 75.7852 116.918 76.0439C121.22 73.5452 126.504 70.4765 126.504 70.4765C126.504 70.4765 131.787 67.4078 136.089 64.9091C135.645 65.1672 131.081 54.3731 130.743 53.2813C129.621 49.6539 128.991 46.1377 130.089 42.4918C134.008 29.4969 126.614 13.4752 112.95 10.2171Z" fill="#C233CC"/>
<path id="Vector_71" opacity="0.52" d="M116.658 61.4619C114.064 58.6898 111.321 56.4007 107.611 55.5478C94.3821 52.5111 84.1283 38.1503 88.07 24.6678C89.394 20.138 92.0165 16.0498 95.1193 12.5338C95.1402 12.5101 95.1895 12.4595 95.2641 12.3849C95.746 11.9004 96.253 11.4474 96.7726 11.008C93.5104 12.2008 90.5337 14.0882 88.0731 16.5616C87.9993 16.6357 87.9492 16.6868 87.9283 16.7105C84.8254 20.2265 82.2026 24.316 80.8789 28.8444C76.9373 42.327 87.191 56.6877 100.42 59.7245C104.13 60.576 106.872 62.8656 109.467 65.6386C110.249 66.4736 117.363 75.7853 116.918 76.0439C119.388 74.609 122.177 72.9892 124.109 71.8672C124.554 71.6086 117.44 62.2961 116.658 61.4619Z" fill="#FFF6E7"/>
<path id="Vector_72" d="M126.505 70.476L112.888 47.0316L115.633 42.256C116.54 40.6779 115.081 38.7928 113.326 39.2755L104.665 41.6551C103.188 42.0608 102.021 40.3863 102.913 39.1408L105.891 34.9865L101.268 27.0284" stroke="#FEFEFE" stroke-width="2.2387" stroke-miterlimit="10" stroke-linecap="round"/>
<path id="Vector_73" d="M139.872 67.0269C140.285 67.7394 140.043 68.6526 139.331 69.0664L118.252 81.3092C117.54 81.723 116.627 81.4809 116.213 80.7684C115.799 80.0558 116.041 79.1427 116.754 78.7289L137.832 66.4861C138.544 66.0727 139.458 66.3144 139.872 67.0269Z" fill="#2F2F35"/>
<path id="Vector_74" d="M142.12 70.8983C142.534 71.6108 142.292 72.5248 141.58 72.9387L120.501 85.1814C119.789 85.5953 118.876 85.3532 118.461 84.6398C118.047 83.9272 118.29 83.0141 119.002 82.6003L140.081 70.3575C140.792 69.9441 141.706 70.1857 142.12 70.8983Z" fill="#2F2F35"/>
<path id="Vector_75" d="M144.369 74.7696C144.783 75.4822 144.54 76.3953 143.828 76.8092L122.749 89.0519C122.037 89.4658 121.124 89.2237 120.71 88.5111C120.296 87.7986 120.538 86.8846 121.25 86.4707L142.329 74.228C143.041 73.8155 143.955 74.0571 144.369 74.7696Z" fill="#2F2F35"/>
<path id="Vector_76" d="M138.535 91.9648C142.692 89.55 144.105 84.2216 141.69 80.064L126.635 88.8086C129.05 92.9671 134.377 94.3796 138.535 91.9648Z" fill="#2F2F35"/>
</g>
<g id="Group_11">
<path id="Vector_77" d="M484.876 89.968L486.984 94.24L491.698 94.925L488.287 98.25L489.092 102.946L484.876 100.729L480.659 102.946L481.465 98.25L478.054 94.925L482.768 94.24L484.876 89.968Z" fill="#9E9E9E"/>
<path id="Vector_78" d="M545.573 84L548.517 89.965L555.1 90.922L550.337 95.565L551.461 102.121L545.573 99.026L539.686 102.121L540.81 95.565L536.047 90.922L542.63 89.965L545.573 84Z" fill="#666666"/>
<path id="Vector_79" d="M527.152 173.393L528.795 176.722L532.47 177.256L529.811 179.848L530.439 183.507L527.152 181.779L523.866 183.507L524.493 179.848L521.834 177.256L525.509 176.722L527.152 173.393Z" fill="#9E9E9E"/>
<path id="Vector_80" d="M468.527 150.838L471.471 156.803L478.053 157.759L473.29 162.402L474.415 168.958L468.527 165.863L462.639 168.958L463.764 162.402L459 157.759L465.583 156.803L468.527 150.838Z" fill="#666666"/>
<g id="Group_12">
<g id="Group_13">
<path id="Vector_81" d="M524.976 164.934C541.805 158.186 549.977 139.072 543.229 122.243C536.48 105.414 517.367 97.242 500.538 103.99C483.709 110.739 475.537 129.852 482.285 146.681C489.033 163.51 508.147 171.682 524.976 164.934Z" fill="#C233CC"/>
</g>
<g id="Group_14" opacity="0.67">
<path id="Vector_82" d="M503.913 166.077C515.51 169.313 527.385 165.894 535.486 158.122C530 159.592 524.062 159.664 518.195 158.027C500.731 153.154 490.524 135.047 495.397 117.583C497.034 111.716 500.17 106.673 504.268 102.741C493.425 105.647 484.351 114.037 481.115 125.634C476.243 143.097 486.45 161.204 503.913 166.077Z" fill="#F39EFA"/>
</g>
<path id="Vector_83" opacity="0.52" d="M521.56 102.836C519.925 102.38 518.283 102.056 516.648 101.857C515.792 104.927 515.325 108.158 515.325 111.501C515.325 128.59 527.289 142.875 543.295 146.463C543.699 145.431 544.055 144.37 544.359 143.28C549.23 125.816 539.023 107.708 521.56 102.836Z" fill="#F39EFA"/>
<path id="Vector_84" d="M480.021 131.755C467.285 126.793 459.363 122.304 460.029 119.919C461.136 115.951 485.584 119.306 514.635 127.412C543.686 135.518 566.338 145.306 565.231 149.274C564.568 151.652 555.524 151.4 542.13 149.072" stroke="#666666" stroke-width="2" stroke-miterlimit="10"/>
</g>
</g>
<g id="Group_15">
<path id="Vector_85" d="M32.5062 302.139V297.663H30.4282C30.035 295.537 29.1218 293.587 27.8174 291.926L29.466 290.357L26.1406 287.192L24.4303 288.82C22.6797 287.682 20.6447 286.919 18.4526 286.619V284.281H13.7504V286.706C11.6482 287.084 9.71576 287.902 8.04905 289.054L6.38437 287.469L3.059 290.634L4.74515 292.239C3.51324 293.906 2.67452 295.849 2.33434 297.951H0V302.426H2.386C2.77114 304.478 3.63939 306.364 4.87667 307.985L3.03953 309.733L6.36489 312.898L8.22552 311.128C9.93115 312.268 11.9112 313.054 14.0536 313.394V315.81H18.7559V313.394C20.8909 313.056 22.8643 312.275 24.5665 311.141L26.1218 312.621L29.4472 309.456L27.9187 308.001C29.2204 306.302 30.1115 304.307 30.4691 302.139H32.5062ZM16.4047 307.641C11.987 307.641 8.40535 304.232 8.40535 300.028C8.40535 295.823 11.987 292.415 16.4047 292.415C20.8231 292.415 24.4041 295.823 24.4041 300.028C24.4041 304.233 20.8231 307.641 16.4047 307.641Z" fill="#C233CC"/>
<path id="Vector_86" d="M51.2587 319.114V316.532H50.0596C49.8328 315.305 49.3061 314.181 48.554 313.222L49.5054 312.317L47.5871 310.491L46.6007 311.43C45.5909 310.773 44.4167 310.333 43.1519 310.16V308.811H40.4392V310.21C39.2267 310.428 38.1115 310.901 37.15 311.565L36.1898 310.651L34.2715 312.477L35.2444 313.402C34.5339 314.364 34.0501 315.485 33.8535 316.698H32.5068V319.279H33.8837C34.1058 320.463 34.607 321.551 35.3203 322.486L34.2601 323.495L36.1784 325.321L37.2513 324.299C38.2357 324.958 39.3777 325.411 40.6129 325.607V327H43.3257V325.607C44.5576 325.412 45.6963 324.961 46.6779 324.306L47.575 325.16L49.4933 323.334L48.6117 322.495C49.3625 321.515 49.8771 320.364 50.0824 319.113L51.2587 319.114ZM41.9697 322.288C39.4213 322.288 37.3547 320.322 37.3547 317.896C37.3547 315.47 39.4206 313.503 41.9697 313.503C44.5187 313.503 46.5846 315.47 46.5846 317.896C46.5846 320.322 44.5187 322.288 41.9697 322.288Z" fill="#C233CC"/>
<g id="Group_16">
<path id="Vector_87" d="M93.9999 285.676V276.484H89.7318C88.9239 272.118 87.0492 268.114 84.3707 264.702L87.7571 261.479L80.9285 254.98L77.4166 258.322C73.8215 255.986 69.6427 254.42 65.1404 253.801V249H55.483V253.981C51.1666 254.756 47.1971 256.438 43.7745 258.802L40.3565 255.549L33.528 262.048L36.9909 265.344C34.4606 268.768 32.7389 272.757 32.0404 277.075H27.2456V286.266H32.1464C32.9375 290.478 34.721 294.352 37.2613 297.68L33.4877 301.272L40.3162 307.771L44.1368 304.135C47.64 306.478 51.7054 308.093 56.105 308.789V313.751H65.7624V308.789C70.1466 308.095 74.2 306.49 77.6951 304.161L80.8896 307.201L87.7182 300.702L84.58 297.716C87.2532 294.226 89.0836 290.13 89.817 285.676L93.9999 285.676ZM60.9334 296.976C51.8604 296.976 44.5052 289.976 44.5052 281.341C44.5052 272.706 51.8604 265.706 60.9334 265.706C70.0064 265.706 77.3616 272.706 77.3616 281.341C77.3616 289.976 70.0064 296.976 60.9334 296.976Z" fill="#F39EFA"/>
<path id="Vector_88" d="M60.6229 290.551C65.9468 290.551 70.2628 286.443 70.2628 281.376C70.2628 276.309 65.9468 272.201 60.6229 272.201C55.2989 272.201 50.9829 276.309 50.9829 281.376C50.9829 286.443 55.2989 290.551 60.6229 290.551Z" fill="#C233CC"/>
</g>
</g>
<path id="Vector_89" d="M316 418.875C315.454 420.072 315.192 420.607 314.49 421.664C313.508 423.14 312.122 424.984 310.41 424.996C308.887 425.01 308.493 424.013 306.424 424.031C304.356 424.041 303.926 425.015 302.4 425C300.686 424.984 299.376 423.324 298.393 421.849C295.646 417.715 295.356 412.867 297.053 410.289C298.255 408.461 300.154 407.387 301.939 407.387C303.758 407.387 304.9 408.373 306.402 408.373C307.861 408.373 308.748 407.385 310.851 407.385C312.44 407.385 314.12 408.24 315.322 409.717C311.393 411.846 312.031 417.391 316 418.875ZM309.254 405.734C310.019 404.764 310.6 403.395 310.389 402C309.142 402.084 307.683 402.871 306.831 403.891C306.058 404.82 305.418 406.199 305.667 407.533C307.029 407.576 308.438 406.773 309.254 405.734Z" fill="#5E5E5E"/>
<path id="Vector 4" d="M301.922 254.017L293.195 276.107C315.224 259.351 340.461 246.935 308.195 242.908L315.211 223.271C283.309 247.541 280.962 254.021 301.922 254.017Z" fill="#FFFEFE"/>
</g>
</svg>
