<svg width="639" height="595" viewBox="0 0 639 595" fill="none" xmlns="http://www.w3.org/2000/svg">
<g id="Group 61">
<g id="Group 57">
<g id="Group 52">
<g id="Group 46">
<g id="Group">
<path id="Vector" opacity="0.87" d="M604.907 570.725C623.736 570.725 639 569.639 639 568.299C639 566.959 623.736 565.873 604.907 565.873C586.078 565.873 570.814 566.959 570.814 568.299C570.814 569.639 586.078 570.725 604.907 570.725Z" fill="#515159"/>
<g id="Group_2">
<path id="Vector_2" d="M609.235 476.503C609.235 476.503 580.045 457.932 598.795 430.939C617.544 403.945 612.857 394.565 606.295 386.964C622.23 403.945 618.738 423.293 609.235 435.566C599.731 447.838 598.225 464.54 609.235 476.503Z" fill="#AFAFAF"/>
<g id="Group_3">
<path id="Vector_3" d="M633.051 499.545H576.765L582.259 566.274H627.557L633.051 499.545Z" fill="#FEFEFE"/>
<path id="Vector_4" d="M639 496.132H570.814V503.957H639V496.132Z" fill="#8B8B8C"/>
<path id="Vector_5" d="M625.611 489.094H584.206C580.096 489.094 576.765 492.214 576.765 496.063V496.134H633.053V496.063C633.051 492.214 629.719 489.094 625.611 489.094Z" fill="#5A5A63"/>
<path id="Vector_6" d="M629.92 537.562L631.252 521.397H578.562L579.894 537.562H629.92Z" fill="#EDB62B"/>
</g>
<path id="Vector_7" d="M633.051 496.132V496.061C633.051 492.212 629.719 489.092 625.609 489.092H605.104C609.214 489.092 612.545 492.212 612.545 496.061V496.132H618.493V503.957H612.181L607.051 566.272H627.557L632.688 503.957H639V496.132H633.051Z" fill="#AFAFAF"/>
</g>
</g>
<g id="Group_4">
<path id="Vector_8" d="M339.866 81.184C339.866 81.184 351.662 46.5413 334.428 36.4819C323.473 31.2099 317.486 37.7777 317.486 37.7777C317.486 37.7777 312.335 13.2833 276.838 21.3755C253.844 26.6167 246.592 15.5173 246.592 15.5173C246.592 15.5173 246.377 46.2219 262.212 55.3522C273.677 64.5587 269.28 89.445 269.28 89.445L339.866 81.184Z" fill="#2F2F35"/>
<path id="Vector_9" opacity="0.87" d="M444.44 533.892C444.44 533.892 508.348 535.691 526.183 551.108C544.941 567.323 564.619 592.643 483.872 592.155C403.125 591.666 331.542 570.854 263.818 577.46C196.094 584.064 140.519 595.452 124.33 592.926C108.14 590.4 223.536 538.633 223.536 538.633L437.779 545.995L444.44 533.892Z" fill="#515159"/>
<path id="Vector_10" d="M384.665 399.278L304.1 391.699L223.535 399.278C223.535 399.278 218.75 434.926 203.192 453.943C304.1 487.88 304.1 487.88 304.1 487.88C304.1 487.88 304.1 487.88 405.008 453.943C389.452 434.926 384.665 399.278 384.665 399.278Z" fill="#A87D1D"/>
<path id="Vector_11" d="M300.919 486.809C304.097 487.878 304.101 487.88 304.101 487.88C304.101 487.88 304.105 487.878 307.279 486.811C325.845 446.815 321.403 401.942 320.302 393.224L304.103 391.699L283.368 393.65C282.954 403.234 282.262 447.069 300.919 486.809Z" fill="#A87D1D"/>
<path id="Vector_12" d="M223.078 402.187C223.082 402.189 307.854 437.202 389.725 421.985C386.047 409.539 384.667 399.278 384.667 399.278L304.102 391.699L239.384 397.788L223.078 402.187Z" fill="#895436"/>
<path id="Vector_13" d="M262.21 55.35C273.675 64.5564 269.278 89.4428 269.278 89.4428L284.276 87.6879C299.679 74.8518 317.066 58.6003 314.541 52.479C310.116 41.7499 297.337 31.0407 273.774 29.8157C250.21 28.5907 246.59 15.5151 246.59 15.5151C246.59 15.5151 246.375 46.2197 262.21 55.35Z" fill="#515159"/>
<path id="Vector_14" d="M301.176 142.282L234.572 165.02L223.535 399.28C223.535 399.28 247.079 409.615 304.1 409.615C304.1 166.131 304.1 145.921 304.1 145.921L301.176 142.282Z" fill="#353535"/>
<path id="Vector_15" d="M307.025 142.282L373.629 165.02L384.666 399.28C384.666 399.28 361.121 409.615 304.101 409.615C304.101 166.131 304.101 145.921 304.101 145.921L307.025 142.282Z" fill="#353535"/>
<path id="Vector_16" d="M234.573 165.02L234.265 165.123C214.81 171.63 199.263 185.633 191.564 203.584L120.07 365.626L180.864 372.41L232.329 254.294L234.573 165.02Z" fill="#F5C9AF"/>
<path id="Vector_17" d="M373.629 165.02L373.939 165.123C393.394 171.63 408.941 185.633 416.64 203.584L488.133 365.626L427.34 372.41L375.875 254.294L373.629 165.02Z" fill="#F5C9AF"/>
<path id="Vector_18" d="M444.401 266.504L416.64 203.583C408.941 185.631 393.394 171.63 373.939 165.122L373.629 165.018L375.875 254.29L390.454 287.751C409.917 272.487 429.444 267.531 444.401 266.504Z" fill="#353535"/>
<path id="Vector_19" d="M163.8 266.504L191.561 203.583C199.261 185.631 214.807 171.63 234.262 165.122L234.572 165.018L232.326 254.29L217.747 287.751C198.284 272.487 178.757 267.531 163.8 266.504Z" fill="#353535"/>
<path id="Vector_20" d="M377.981 257.377C377.981 257.377 376.177 255.01 373.63 250.577L375.876 254.29C375.876 254.29 350.535 386.001 282.794 409.09C289.307 409.417 296.387 409.611 304.102 409.611C361.122 409.611 384.667 399.276 384.667 399.276L377.981 257.377Z" fill="#353535"/>
<path id="Vector_21" opacity="0.52" d="M203.193 239.772C220.373 194.644 221.329 194.989 258.853 186.72C296.376 178.452 288.998 146.094 288.998 146.094L254.014 158.036L248.603 159.883L234.573 164.672L234.263 164.776C214.807 171.282 199.261 185.285 191.561 203.235L123.031 358.562C151.973 338.612 188.56 278.208 203.193 239.772Z" fill="#3E2640" fill-opacity="0.22"/>
<path id="Vector_22" opacity="0.28" d="M405.008 240.12C387.828 194.991 386.873 195.336 349.348 187.068C311.825 178.8 319.203 146.442 319.203 146.442L354.187 158.383L359.598 160.231L373.627 165.02L373.937 165.123C393.392 171.629 408.938 185.632 416.638 203.583L485.168 358.909C456.229 338.959 419.642 278.556 405.008 240.12Z" fill="#353535"/>
<path id="Vector_23" d="M304.281 171.183H303.92C294.075 171.183 286.093 163.71 286.093 154.489V114.63H322.106V154.489C322.108 163.71 314.125 171.183 304.281 171.183Z" fill="#F5C9AF"/>
<path id="Vector_24" d="M321.819 145.373C321.922 145.373 322.007 145.362 322.108 145.36V114.63H305.296L286.093 121.129C286.093 121.129 293.24 145.373 321.819 145.373Z" fill="#F3BC9B"/>
<path id="Vector_25" d="M345.991 90.6858C345.991 96.6674 340.815 101.515 334.427 101.515C328.041 101.515 322.863 96.6674 322.863 90.6858C322.863 84.7043 328.041 79.8569 334.427 79.8569C340.813 79.8569 345.991 84.7043 345.991 90.6858Z" fill="#F2B997"/>
<path id="Vector_26" d="M336.677 101.302C338.348 95.025 339.328 86.9945 339.863 81.1836C338.235 80.3651 336.402 79.8569 334.425 79.8569C328.04 79.8569 322.861 84.7061 322.861 90.6858C322.861 96.6674 328.04 101.515 334.425 101.515C335.198 101.515 335.948 101.437 336.677 101.302Z" fill="#F5C9AF"/>
<path id="Vector_27" d="M262.21 90.6858C262.21 96.6674 267.388 101.515 273.774 101.515C280.161 101.515 285.338 96.6674 285.338 90.6858C285.338 84.7043 280.161 79.8569 273.774 79.8569C267.388 79.8569 262.21 84.7043 262.21 90.6858Z" fill="#F5CBB2"/>
<path id="Vector_28" d="M271.523 101.302C269.85 95.025 268.872 86.9945 268.337 81.1836C269.965 80.3651 271.798 79.8569 273.775 79.8569C280.162 79.8569 285.339 84.7061 285.339 90.6858C285.339 96.6674 280.16 101.515 273.775 101.515C273.004 101.515 272.252 101.437 271.523 101.302Z" fill="#F1B693"/>
<path id="Vector_29" d="M324.453 52.811H304.101H283.748L273.675 73.4217L275.369 93.82C276.274 104.705 283.783 123.501 294.349 128.12C297.488 129.492 300.814 130.406 304.101 130.406C307.388 130.406 310.713 129.492 313.853 128.12C324.418 123.501 331.928 104.707 332.833 93.82L334.527 73.4217L324.453 52.811Z" fill="#F5C9AF"/>
<path id="Vector_30" d="M314.54 78.6846C314.54 78.6846 321.369 80.4764 329.096 78.6846" stroke="#2F2F35" stroke-width="1.3362" stroke-miterlimit="10" stroke-linecap="round"/>
<path id="Vector_31" d="M312.335 66.9626C312.335 66.9626 322.31 65.4101 328.306 68.6438" stroke="#2F2F35" stroke-width="2.6723" stroke-miterlimit="10" stroke-linecap="round"/>
<path id="Vector_32" d="M293.66 78.6846C293.66 78.6846 286.831 80.4764 279.103 78.6846" stroke="#2F2F35" stroke-width="1.3362" stroke-miterlimit="10" stroke-linecap="round"/>
<path id="Vector_33" d="M295.866 66.9626C295.866 66.9626 285.892 65.4101 279.896 68.6438" stroke="#2F2F35" stroke-width="2.6723" stroke-miterlimit="10" stroke-linecap="round"/>
<path id="Vector_34" opacity="0.52" d="M287.882 96.4587C286.553 75.8481 283.748 52.811 283.748 52.811L273.675 73.4217L274.214 79.8969C274.065 79.8915 273.925 79.8552 273.776 79.8552C267.39 79.8552 262.212 84.7043 262.212 90.6841C262.212 96.6656 267.39 101.513 273.776 101.513C274.787 101.513 275.752 101.353 276.687 101.125C279.409 111.66 285.898 124.425 294.351 128.12C297.491 129.492 300.816 130.406 304.103 130.406C304.103 130.406 289.212 117.071 287.882 96.4587Z" fill="#F6D1BB"/>
<g id="Group_5">
<path id="Vector_35" d="M373.629 490.914L143.461 425.52C112.9 416.836 80.7586 433.685 72.6812 462.618L72.3769 463.711C64.0553 493.522 84.6985 523.639 117.111 528.944C202.213 542.874 356.461 566.564 437.642 569.461L471.863 590.825C477.029 594.051 483.89 593.52 488.421 589.542L488.597 589.387C493.981 584.661 494.256 576.744 489.211 571.698L483.874 566.361C483.874 566.361 479.116 544.658 455.621 535.355C432.125 526.054 429.917 503.317 424.4 490.914C418.879 478.512 383.563 472.313 373.629 490.914Z" fill="#F5C9AF"/>
<path id="Vector_36" d="M72.6812 462.618C80.7586 433.683 112.902 416.836 143.461 425.52L221.517 447.697C209.759 461.433 194.251 489.315 193.782 541.063C165.285 536.725 138.919 532.513 117.109 528.943C84.6966 523.639 64.0534 493.52 72.375 463.711L72.6812 462.618Z" fill="#EDB62B"/>
<path id="Vector_37" opacity="0.67" d="M145.289 508.079C145.289 516.868 143.037 525.161 139.068 532.5C131.361 531.263 123.987 530.069 117.111 528.943C84.6985 523.639 64.0553 493.52 72.3769 463.711L72.6812 462.618C73.406 460.019 74.3323 457.522 75.4273 455.128C79.3148 454.355 83.3439 453.941 87.4775 453.941C119.405 453.943 145.289 478.18 145.289 508.079Z" fill="#A87D1D"/>
<path id="Vector_38" d="M384.666 520.886C384.666 520.886 381.356 538.948 349.351 532.5" stroke="#7B3C38" stroke-width="1.139" stroke-miterlimit="10"/>
<path id="Vector_39" opacity="0.28" d="M405.009 512.618C405.009 512.618 355.971 510.551 252.23 493.221C168.182 479.182 143.528 438.895 137.194 424.104C139.285 424.464 141.376 424.927 143.46 425.518L373.628 490.913C383.562 472.309 418.877 478.51 424.394 490.913C429.912 503.315 432.119 526.051 455.615 535.353C479.111 544.654 483.869 566.359 483.869 566.359C483.869 566.359 459.71 551.89 444.437 548.79C429.164 545.691 405.009 512.618 405.009 512.618Z" fill="#4C2A29"/>
</g>
<path id="Vector_40" d="M415.628 568.299C415.628 568.299 457.893 606.169 493.926 590.585C499.922 587.993 501.8 580.823 497.885 575.845C467.533 537.243 429.264 495.188 414.677 479.383C411.025 475.427 405.245 473.828 399.882 475.287L358.373 486.579L415.628 568.299Z" fill="#2F2F35"/>
<path id="Vector_41" d="M358.374 486.581L318.616 475.283L348.732 562.069L415.629 568.299L358.374 486.581Z" fill="#A5A5A5"/>
<path id="Vector_42" d="M234.571 490.914L464.741 425.52C495.303 416.836 527.444 433.685 535.521 462.618L535.826 463.711C544.147 493.522 523.504 523.639 491.092 528.944C405.99 542.874 251.742 566.564 170.561 569.461L136.34 590.825C131.173 594.051 124.313 593.52 119.782 589.542L119.606 589.387C114.222 584.661 113.947 576.744 118.991 571.698L124.329 566.361C124.329 566.361 129.086 544.658 152.582 535.355C176.078 526.054 178.285 503.317 183.803 490.914C189.322 478.512 224.637 472.313 234.571 490.914Z" fill="#F5C9AF"/>
<path id="Vector_43" d="M535.52 462.618C527.443 433.683 495.3 416.836 464.74 425.52L386.685 447.697C398.442 461.433 413.95 489.315 414.417 541.063C442.915 536.725 469.281 532.513 491.09 528.943C523.503 523.639 544.146 493.52 535.824 463.711L535.52 462.618Z" fill="#EDB62B"/>
<path id="Vector_44" opacity="0.67" d="M462.913 508.079C462.913 516.868 465.165 525.161 469.134 532.5C476.841 531.263 484.215 530.069 491.091 528.943C523.503 523.639 544.147 493.52 535.825 463.711L535.521 462.618C534.796 460.019 533.87 457.522 532.775 455.128C528.887 454.355 524.858 453.941 520.724 453.941C488.796 453.943 462.913 478.18 462.913 508.079Z" fill="#A87D1D"/>
<path id="Vector_45" opacity="0.28" d="M203.193 512.617C203.193 512.617 252.231 510.55 355.972 493.221C440.019 479.182 464.674 438.895 471.007 424.104C468.916 424.464 466.825 424.926 464.742 425.518L234.572 490.914C224.64 472.311 189.323 478.512 183.805 490.914C178.288 503.317 176.08 526.052 152.585 535.355C129.089 544.656 124.331 566.361 124.331 566.361C124.331 566.361 148.49 551.891 163.763 548.792C179.034 545.69 203.193 512.617 203.193 512.617Z" fill="#4C2A29"/>
<path id="Vector_46" opacity="0.57" d="M152.583 535.355L118.079 529.364C86.851 524.697 65.7021 497.052 71.0295 467.861L71.2388 466.718C77.0469 434.892 111.543 415.206 144.41 424.963L209.559 444.299" stroke="white" stroke-width="1.1139" stroke-miterlimit="10"/>
<path id="Vector_47" d="M292.267 96.1213C291.027 96.1213 290.298 97.4679 291.06 98.3844C294.515 102.538 299.089 105.077 304.118 105.077C309.147 105.077 313.72 102.538 317.176 98.3844C317.937 97.4679 317.209 96.1213 315.968 96.1213H304.118H292.267Z" fill="white"/>
<path id="Vector_48" d="M307.517 78.229V89.4408C307.517 89.4408 304.763 87.9836 300.932 89.4408" stroke="#2F2F35" stroke-width="0.8212" stroke-miterlimit="10" stroke-linecap="round"/>
<path id="Vector_49" d="M317.486 37.7754H314.54V55.3172H317.486V37.7754Z" fill="#F5C9AF"/>
<g id="Group_6">
<path id="Vector_50" d="M488.134 365.624L488.256 365.94C495.155 383.827 486.891 403.737 468.903 412.568L345.992 472.902L345.385 471.432C334.556 445.236 345.883 415.564 371.992 401.731L427.342 372.408L488.134 365.624Z" fill="#F5C9AF"/>
<path id="Vector_51" opacity="0.28" d="M462.181 402.581C462.181 406.829 463.314 410.825 465.295 414.337L468.903 412.566C483.089 405.602 491.19 391.743 490.611 377.424C490.114 377.399 489.624 377.353 489.12 377.353C474.241 377.353 462.181 388.649 462.181 402.581Z" fill="#E8854A"/>
<path id="Vector_52" d="M427.34 372.408L462.181 353.906" stroke="#F1B692" stroke-width="1.3362" stroke-miterlimit="10" stroke-linecap="round"/>
</g>
<g id="Group_7">
<path id="Vector_53" d="M262.312 472.219L139.879 412.119C122.122 403.401 113.987 383.781 120.756 366.164L181.072 372.894L236.338 402.173C262.234 415.893 273.441 445.299 262.717 471.241L262.312 472.219Z" fill="#F5C9AF" stroke="#F5C9AF"/>
<path id="Vector_54" opacity="0.28" d="M145.882 402.581C145.882 406.573 144.859 410.339 143.06 413.678L139.879 412.117C126.014 405.311 118.053 391.849 118.436 377.896C118.443 377.896 118.449 377.895 118.455 377.895C118.791 377.874 119.108 377.853 119.442 377.853C134.075 377.853 145.882 388.955 145.882 402.581Z" fill="#E8854A" stroke="#F5C9AF"/>
<path id="Vector_55" d="M181.223 372.408L146.382 353.906" stroke="#F5C9AF" stroke-width="1.3362" stroke-miterlimit="10" stroke-linecap="round"/>
</g>
<path id="Vector_56" d="M248.93 466.206C248.93 466.206 255.134 434.331 234.933 424.104" stroke="#4C2A29" stroke-width="1.3362" stroke-miterlimit="10" stroke-linecap="round"/>
<path id="Vector_57" d="M359.27 466.206C359.27 466.206 353.067 434.331 373.268 424.104" stroke="#4C2A29" stroke-width="1.3362" stroke-miterlimit="10" stroke-linecap="round"/>
<path id="Vector_58" d="M192.573 568.299C192.573 568.299 150.308 606.169 114.276 590.585C108.281 587.993 106.402 580.823 110.316 575.845C140.669 537.243 178.936 495.188 193.525 479.383C197.176 475.427 202.957 473.828 208.319 475.287L249.828 486.579L192.573 568.299Z" fill="#2F2F35"/>
<path id="Vector_59" d="M249.829 486.581L289.585 475.283L259.469 562.069L192.572 568.299L249.829 486.581Z" fill="#ECECEC"/>
<path id="Vector_60" opacity="0.28" d="M233.295 510.179C245.087 509.001 260.405 507.275 279.353 504.77L289.585 475.285L249.83 486.581L233.295 510.179Z" fill="#4C2A29"/>
<path id="Vector_61" d="M205.239 541.943L182.176 574.86C180.74 576.909 178.174 578.005 175.579 577.674L175.426 577.654C170.43 577.019 167.887 571.689 170.715 567.78L194.303 535.17C195.813 533.083 198.54 532.087 201.158 532.662L201.294 532.691C205.685 533.656 207.712 538.413 205.239 541.943Z" fill="#FFF6E7"/>
<g id="Group_8">
<g id="Group_9">
<path id="Vector_62" d="M300.932 351.696H159.786L194.586 467.772H300.932H407.277L442.077 351.696H300.932Z" fill="#AFAFAF"/>
<path id="Vector_63" d="M407.277 467.772H194.586V484.679H407.277V467.772Z" fill="#8B8B8C"/>
<path id="Vector_64" d="M442.077 343.996H159.786V351.696H442.077V343.996Z" fill="#5A5A63"/>
<path id="Vector_65" d="M227.666 472.627H206.366V479.423H227.666V472.627Z" fill="#5A5A63"/>
<path id="Vector_66" d="M258.409 472.627H237.108V479.423H258.409V472.627Z" fill="#5A5A63"/>
<path id="Vector_67" d="M407.278 476.225H277.834" stroke="#0F1201" stroke-miterlimit="10"/>
<path id="Vector_68" opacity="0.54" d="M159.786 351.696L194.586 467.774H270.339C315.319 418.938 342.648 351.696 342.648 351.696L342.555 343.996H159.786V351.696Z" fill="white"/>
</g>
<path id="Vector_69" opacity="0.57" d="M159.786 351.696H442.077" stroke="#0F1201" stroke-miterlimit="10"/>
</g>
</g>
<g id="Group 59">
<g id="Group 50">
<g id="Group_10">
<path id="Vector_70" d="M112.955 10.2238C108.364 9.12936 103.513 9.38245 98.9211 10.3367C98.8902 10.3431 98.8218 10.3608 98.72 10.3888C94.6929 11.481 91.0191 13.6164 88.0756 16.5758C88.0018 16.6499 87.9516 16.701 87.9307 16.7248C84.8272 20.2434 82.2045 24.3354 80.8793 28.8673C76.9355 42.3589 87.1879 56.7273 100.417 59.764C104.128 60.6156 106.869 62.9063 109.464 65.6806C110.246 66.5161 117.359 75.8326 116.914 76.0914C121.216 73.5906 126.501 70.5192 126.501 70.5192C126.501 70.5192 131.785 67.4478 136.087 64.9469C135.643 65.2053 131.08 54.4051 130.742 53.3126C129.621 49.6831 128.992 46.1648 130.091 42.5165C134.011 29.5128 126.619 13.4821 112.955 10.2238Z" fill="#F3CE01"/>
<path id="Vector_71" opacity="0.52" d="M116.658 61.4994C114.064 58.7259 111.321 56.4356 107.61 55.5827C94.3807 52.5458 84.1279 38.177 88.0718 24.6849C89.3966 20.152 92.0199 16.0608 95.1236 12.542C95.1445 12.5182 95.1938 12.4676 95.2684 12.393C95.7504 11.9081 96.2575 11.4547 96.7773 11.015C93.5145 12.209 90.5372 14.098 88.0761 16.5734C88.0023 16.6476 87.9521 16.6987 87.9312 16.7224C84.8276 20.2412 82.2039 24.3338 80.8795 28.8654C76.9355 42.3574 87.1883 56.7262 100.418 59.7631C104.129 60.6147 106.871 62.9055 109.465 65.6799C110.247 66.5154 117.361 75.8322 116.916 76.0911C119.386 74.6548 122.176 73.0336 124.108 71.9106C124.553 71.6517 117.439 62.3341 116.658 61.4994Z" fill="#FFF6E7"/>
<path id="Vector_72" d="M126.503 70.5206L112.887 47.0619L115.633 42.2827C116.541 40.7034 115.082 38.8171 113.326 39.3004L104.664 41.6829C103.187 42.0891 102.02 40.4136 102.913 39.1671L105.891 35.0095L101.269 27.0466" stroke="#FEFEFE" stroke-width="2.2387" stroke-miterlimit="10" stroke-linecap="round"/>
<path id="Vector_73" d="M139.871 67.0699C140.285 67.7827 140.043 68.6962 139.33 69.1104L118.251 81.3617C117.539 81.7758 116.626 81.5337 116.212 80.8209C115.798 80.1081 116.041 79.1945 116.753 78.7804L137.832 66.5291C138.544 66.1154 139.458 66.3571 139.871 67.0699Z" fill="#2F2F35"/>
<path id="Vector_74" d="M142.12 70.9436C142.534 71.6564 142.292 72.5709 141.58 72.985L120.501 85.2363C119.788 85.6505 118.875 85.4084 118.461 84.6947C118.047 83.9819 118.29 83.0683 119.002 82.6542L140.081 70.4029C140.793 69.9892 141.707 70.2308 142.12 70.9436Z" fill="#2F2F35"/>
<path id="Vector_75" d="M144.369 74.8175C144.783 75.5303 144.54 76.4439 143.828 76.8581L122.749 89.1094C122.036 89.5235 121.123 89.2814 120.71 88.5686C120.296 87.8558 120.538 86.9414 121.25 86.5272L142.329 74.2759C143.041 73.8631 143.955 74.1047 144.369 74.8175Z" fill="#2F2F35"/>
<path id="Vector_76" d="M138.534 92.0235C142.692 89.6068 144.106 84.2752 141.692 80.1156L126.635 88.8672C129.049 93.0276 134.376 94.4402 138.534 92.0235Z" fill="#2F2F35"/>
</g>
</g>
</g>
<g id="Group 49">
<g id="Group 58">
<g id="Group_11">
<path id="Vector_77" d="M484.876 91.1566L486.535 94.522L486.652 94.7578L486.912 94.7957L490.624 95.3354L487.938 97.9555L487.75 98.139L487.794 98.3979L488.428 102.098L485.109 100.352L484.876 100.229L484.643 100.352L481.323 102.098L481.957 98.398L482.002 98.139L481.814 97.9555L479.128 95.3354L482.84 94.7957L483.1 94.7578L483.216 94.522L484.876 91.1566Z" fill="#6F56D2" stroke="#6F56D2"/>
<path id="Vector_78" d="M545.573 85.1847L548.068 90.2442L548.185 90.48L548.445 90.5179L554.026 91.3297L549.988 95.2688L549.8 95.4522L549.844 95.7111L550.797 101.273L545.806 98.6474L545.573 98.525L545.34 98.6474L540.35 101.273L541.303 95.7111L541.347 95.4522L541.159 95.2688L537.121 91.3297L542.702 90.5179L542.962 90.48L543.078 90.2442L545.573 85.1847Z" fill="#6F56D2" stroke="#6F56D2"/>
<path id="Vector_79" d="M527.152 174.635L528.347 177.057L528.463 177.293L528.723 177.331L531.396 177.719L529.462 179.606L529.274 179.79L529.318 180.049L529.775 182.711L527.385 181.454L527.152 181.331L526.919 181.454L524.53 182.711L524.986 180.048L525.03 179.79L524.842 179.606L522.908 177.719L525.581 177.331L525.841 177.293L525.957 177.057L527.152 174.635Z" fill="#6F56D2" stroke="#6F56D2"/>
<path id="Vector_80" d="M468.527 152.066L471.023 157.125L471.139 157.361L471.399 157.399L476.979 158.21L472.941 162.149L472.753 162.332L472.797 162.591L473.751 168.153L468.76 165.528L468.527 165.405L468.294 165.528L463.303 168.153L464.257 162.591L464.301 162.332L464.113 162.149L460.074 158.21L465.655 157.399L465.915 157.361L466.031 157.125L468.527 152.066Z" fill="#6F56D2" stroke="#6F56D2"/>
<g id="Group_12">
<g id="Group_13">
<path id="Vector_81" d="M542.765 122.508C549.411 139.092 541.363 157.927 524.79 164.576C508.218 171.226 489.395 163.173 482.749 146.59C476.104 130.006 484.152 111.171 500.724 104.521C517.297 97.8717 536.119 105.924 542.765 122.508Z" fill="#6F56D2" stroke="#6F56D2"/>
</g>
<g id="Group_14" opacity="0.67">
<path id="Vector_82" d="M518.061 158.611L518.195 158.129L518.061 158.611C523.342 160.085 528.682 160.195 533.707 159.159C525.798 165.894 514.801 168.705 504.048 165.703C486.851 160.901 476.799 143.058 481.597 125.849C484.598 115.089 492.695 107.13 502.547 103.846C499.06 107.612 496.389 112.24 494.916 117.525C489.969 135.266 500.331 153.66 518.061 158.611Z" fill="#806BD1" stroke="#6F56D2"/>
</g>
<path id="Vector_83" opacity="0.52" d="M517.016 102.474C516.244 105.379 515.825 108.426 515.825 111.573C515.825 128.284 527.413 142.278 542.984 145.973C543.319 145.083 543.618 144.171 543.878 143.238C548.675 126.029 538.623 108.185 521.426 103.384L517.016 102.474ZM517.016 102.474C518.485 102.673 519.958 102.974 521.426 103.384L517.016 102.474Z" fill="#6F56D2" stroke="#6F56D2"/>
<path id="Vector_84" d="M480.021 131.84C467.285 126.875 459.363 122.383 460.029 119.996C461.136 116.026 485.584 119.383 514.635 127.494C543.686 135.606 566.338 145.4 565.231 149.37C564.568 151.75 555.524 151.498 542.13 149.168" stroke="#806BD1" stroke-width="2" stroke-miterlimit="10"/>
</g>
</g>
</g>
</g>
<g id="Group 60">
<g id="Group 51">
<g id="Group_15">
<path id="Vector_85" d="M32.5062 302.334V297.855H30.4282C30.035 295.728 29.1218 293.777 27.8174 292.115L29.466 290.544L26.1406 287.378L24.4303 289.006C22.6797 287.868 20.6447 287.105 18.4526 286.804V284.464H13.7504V286.891C11.6482 287.269 9.71576 288.088 8.04905 289.24L6.38437 287.655L3.059 290.822L4.74515 292.428C3.51324 294.096 2.67452 296.04 2.33434 298.143H0V302.622H2.386C2.77114 304.674 3.63939 306.562 4.87667 308.184L3.03953 309.933L6.36489 313.1L8.22552 311.329C9.93115 312.47 11.9112 313.257 14.0536 313.597V316.014H18.7559V313.597C20.8909 313.258 22.8643 312.476 24.5665 311.341L26.1218 312.823L29.4472 309.656L27.9187 308.2C29.2204 306.5 30.1115 304.503 30.4691 302.334H32.5062ZM16.4047 307.84C11.987 307.84 8.40535 304.429 8.40535 300.222C8.40535 296.014 11.987 292.603 16.4047 292.603C20.8231 292.603 24.4041 296.014 24.4041 300.222C24.4041 304.429 20.8231 307.84 16.4047 307.84Z" fill="#E693EB"/>
<path id="Vector_86" d="M51.2587 319.32V316.736H50.0596C49.8328 315.509 49.3061 314.384 48.554 313.424L49.5054 312.518L47.5871 310.691L46.6007 311.631C45.5909 310.974 44.4167 310.534 43.1519 310.36V309.01H40.4392V310.41C39.2267 310.628 38.1115 311.101 37.15 311.766L36.1898 310.851L34.2715 312.678L35.2444 313.605C34.5339 314.567 34.0501 315.688 33.8535 316.902H32.5068V319.485H33.8837C34.1058 320.669 34.607 321.758 35.3203 322.694L34.2601 323.703L36.1784 325.53L37.2513 324.509C38.2357 325.167 39.3777 325.621 40.6129 325.817V327.211H43.3257V325.817C44.5576 325.622 45.6963 325.171 46.6779 324.516L47.575 325.37L49.4933 323.543L48.6117 322.703C49.3625 321.723 49.8771 320.571 50.0824 319.319L51.2587 319.32ZM41.9697 322.496C39.4213 322.496 37.3547 320.528 37.3547 318.101C37.3547 315.674 39.4206 313.706 41.9697 313.706C44.5187 313.706 46.5846 315.673 46.5846 318.101C46.5846 320.528 44.5187 322.496 41.9697 322.496Z" fill="#E693EB"/>
<g id="Group_16">
<path id="Vector_87" d="M94.0003 285.86V276.663H89.7323C88.9244 272.294 87.0497 268.287 84.3712 264.872L87.7576 261.647L80.929 255.144L77.4171 258.489C73.822 256.151 69.6432 254.584 65.1409 253.965V249.161H55.4835V254.145C51.1671 254.92 47.1976 256.603 43.775 258.969L40.357 255.714L33.5284 262.217L36.9914 265.515C34.4611 268.942 32.7394 272.933 32.0409 277.254H27.2461V286.451H32.1469C32.938 290.666 34.7215 294.542 37.2618 297.872L33.4882 301.466L40.3167 307.969L44.1373 304.332C47.6405 306.676 51.7059 308.291 56.1055 308.989V313.953H65.7629V308.989C70.1471 308.294 74.2005 306.688 77.6956 304.357L80.8901 307.399L87.7186 300.896L84.5805 297.908C87.2537 294.415 89.0841 290.317 89.8175 285.861L94.0003 285.86ZM60.9339 297.168C51.8609 297.168 44.5057 290.163 44.5057 281.523C44.5057 272.882 51.8609 265.878 60.9339 265.878C70.0069 265.878 77.3621 272.882 77.3621 281.523C77.3621 290.163 70.0069 297.168 60.9339 297.168Z" fill="#D753DF"/>
<path id="Vector_88" d="M60.6233 290.738C65.9473 290.738 70.2633 286.628 70.2633 281.558C70.2633 276.487 65.9473 272.377 60.6233 272.377C55.2994 272.377 50.9834 276.487 50.9834 281.558C50.9834 286.628 55.2994 290.738 60.6233 290.738Z" fill="#D753DF"/>
</g>
</g>
</g>
</g>
</g>
<path id="Vector_89" d="M316 419.146C315.454 420.344 315.192 420.879 314.49 421.936C313.508 423.414 312.122 425.259 310.41 425.271C308.887 425.284 308.493 424.287 306.424 424.305C304.356 424.315 303.926 425.29 302.4 425.274C300.686 425.259 299.376 423.598 298.393 422.122C295.646 417.985 295.356 413.134 297.053 410.554C298.255 408.725 300.154 407.65 301.939 407.65C303.758 407.65 304.9 408.637 306.402 408.637C307.861 408.637 308.748 407.648 310.851 407.648C312.44 407.648 314.12 408.504 315.322 409.981C311.393 412.112 312.031 417.66 316 419.146ZM309.254 405.997C310.019 405.025 310.6 403.655 310.389 402.26C309.142 402.344 307.683 403.131 306.831 404.152C306.058 405.082 305.418 406.462 305.667 407.796C307.029 407.839 308.438 407.036 309.254 405.997Z" fill="#5E5E5E"/>
<path id="Vector 3" d="M298.684 244.537L284.414 269.677C313.809 253.225 346.334 242.549 308.131 232.215L319.923 209.74C277.352 233.57 273.422 240.981 298.684 244.537Z" fill="#FFFEFE"/>
</g>
</g>
</g>
</svg>
